<svg width="378" height="126" viewBox="0 0 378 126" fill="none" xmlns="http://www.w3.org/2000/svg">
<g clip-path="url(#clip0_239_172)">
<rect width="378" height="126" fill="white"></rect>
<path d="M160.999 106.915L202.899 56.785H166.899C164.379 56.785 162.479 56.225 161.199 55.115C159.919 54.005 159.279 52.535 159.279 50.715C159.279 48.895 159.919 47.295 161.199 46.125C162.479 44.955 164.379 44.375 166.899 44.375H213.309C219.319 44.375 222.319 47.175 222.319 52.775C222.319 55.445 221.819 57.575 220.819 59.175C219.819 60.775 217.799 63.345 214.759 66.905L175.589 113.535H218.769C221.329 113.535 223.239 114.065 224.499 115.125C225.759 116.185 226.389 117.655 226.389 119.545C226.389 121.435 225.759 123.075 224.499 124.215C223.239 125.365 221.329 125.935 218.769 125.935H165.799C162.199 125.935 159.489 125.125 157.679 123.515C155.859 121.905 154.949 119.745 154.949 117.035C154.949 116.105 155.099 115.255 155.399 114.475C155.699 113.695 156.099 112.965 156.599 112.275C157.099 111.585 157.799 110.715 158.689 109.665C159.579 108.615 160.359 107.685 161.029 106.915H160.999Z" fill="#0073DF"></path>
<path d="M290.539 57.1147H253.309V77.1447H287.589C290.109 77.1447 291.989 77.7147 293.239 78.8447C294.479 79.9747 295.099 81.4647 295.099 83.3247C295.099 85.1847 294.489 86.6947 293.259 87.8647C292.039 89.0347 290.139 89.6147 287.579 89.6147H253.299V112.815H291.809C294.409 112.815 296.359 113.415 297.679 114.625C298.999 115.835 299.649 117.435 299.649 119.435C299.649 121.435 298.989 122.935 297.679 124.135C296.359 125.345 294.409 125.945 291.809 125.945H246.909C243.309 125.945 240.719 125.145 239.149 123.555C237.569 121.965 236.779 119.385 236.779 115.825V54.5048C236.779 52.1348 237.129 50.1948 237.839 48.6948C238.549 47.1948 239.649 46.0947 241.149 45.4147C242.649 44.7247 244.569 44.3848 246.909 44.3848H290.529C293.159 44.3848 295.119 44.9648 296.399 46.1348C297.679 47.3048 298.319 48.8347 298.319 50.7247C298.319 52.6147 297.679 54.2048 296.399 55.3748C295.119 56.5448 293.159 57.1248 290.529 57.1248L290.539 57.1147Z" fill="#0073DF"></path>
<path d="M331.889 52.7641L363.229 100.184V52.3241C363.229 49.2141 363.899 46.8841 365.229 45.3241C366.569 43.7741 368.369 42.9941 370.639 42.9941C372.909 42.9941 374.829 43.7741 376.179 45.3241C377.529 46.8841 378.209 49.2141 378.209 52.3241V115.604C378.209 122.664 375.279 126.194 369.429 126.194C367.969 126.194 366.649 125.984 365.479 125.564C364.309 125.144 363.209 124.474 362.189 123.564C361.169 122.654 360.209 121.584 359.339 120.354C358.459 119.124 357.579 117.874 356.709 116.594L326.139 69.7241V116.874C326.139 119.944 325.429 122.274 323.999 123.844C322.569 125.414 320.739 126.204 318.509 126.204C316.279 126.204 314.359 125.404 312.969 123.814C311.579 122.224 310.879 119.904 310.879 116.874V54.8041C310.879 52.1741 311.169 50.1041 311.759 48.6041C312.449 46.9541 313.609 45.6141 315.219 44.5741C316.829 43.5341 318.569 43.0141 320.429 43.0141C321.889 43.0141 323.149 43.2541 324.189 43.7241C325.229 44.2041 326.149 44.8441 326.929 45.6441C327.719 46.4441 328.519 47.4941 329.339 48.7741C330.159 50.0541 331.009 51.3941 331.889 52.7841V52.7641Z" fill="#0073DF"></path>
<path d="M140.809 23.8839L137.049 33.4139C136.839 33.9439 136.089 33.9439 135.879 33.4139L132.119 23.8839C132.059 23.7239 131.929 23.5939 131.769 23.5339L122.239 19.7739C121.709 19.5639 121.709 18.8139 122.239 18.6039L131.769 14.8439C131.929 14.7839 132.059 14.6539 132.119 14.4939L135.879 4.96391C136.089 4.43391 136.839 4.43391 137.049 4.96391L140.809 14.4939C140.869 14.6539 140.999 14.7839 141.159 14.8439L150.689 18.6039C151.219 18.8139 151.219 19.5639 150.689 19.7739L141.159 23.5339C140.999 23.5939 140.869 23.7239 140.809 23.8839Z" fill="#FF0000"></path>
<path d="M102.949 0.343574C109.179 2.32357 112.039 5.92361 112.559 12.3136C113.099 19.0036 114.439 33.8436 114.439 33.8436C109.169 34.2236 103.639 35.2836 98.0388 37.9336C97.6588 33.6736 97.2488 29.2836 96.8088 24.3736C95.7088 25.6636 44.6188 87.0135 19.9288 116.684C18.3388 118.594 16.7488 120.524 15.1588 122.434C11.7588 126.494 6.67883 127.114 2.87883 123.954C-0.751166 120.944 -0.971164 115.684 2.34884 111.694C17.1988 93.8535 75.2488 24.1036 89.4188 7.06361C91.9888 3.97361 94.6988 1.10359 98.8388 0.173591C101.159 -0.296409 102.869 0.333593 102.949 0.363593V0.343574Z" fill="#FF0000"></path>
<path d="M127.199 37.2238C127.159 38.0138 127.219 38.5838 126.099 38.5538C110.349 38.1338 96.0589 49.2738 92.5389 64.6538C88.2089 83.5438 100.189 101.764 119.459 105.534C120.559 105.754 120.919 106.134 121.019 107.214C121.229 109.494 121.579 111.754 121.919 114.014C122.889 120.484 115.179 127.184 108.769 125.614C95.5089 122.374 85.3689 115.034 78.7789 103.094C63.7289 75.8338 80.5189 41.7339 111.289 36.8739C116.259 36.0839 121.209 36.1139 126.169 36.9439C126.499 37.0039 126.819 37.1238 127.199 37.2238Z" fill="#FF0000"></path>
<path d="M128.429 38.6741C134.199 39.2741 139.409 40.704 143.919 44.074C144.339 44.384 144.489 45.2841 144.489 45.9041C144.519 68.7441 144.519 91.594 144.509 114.434C144.509 115.974 144.459 117.514 144.359 119.054C144.109 123.074 141.529 125.764 137.479 125.864C135.699 125.904 133.799 125.594 132.139 124.954C129.879 124.084 128.809 122.064 128.519 119.684C128.429 118.994 128.439 118.294 128.439 117.594C128.439 91.9641 128.439 66.334 128.439 40.704V38.6641L128.429 38.6741Z" fill="#0073DF"></path>
</g>
<defs>
<clipPath id="clip0_239_172">
<rect width="378" height="126" fill="white"></rect>
</clipPath>
</defs>
</svg>