<svg width="220" height="220" viewBox="0 0 220 220" fill="none" xmlns="http://www.w3.org/2000/svg">
<path d="M74.7316 88.0722C72.993 84.4546 69.179 83.4073 66.9737 79.8774C66.3632 78.9002 65.7649 77.7336 65.5597 76.5932L65.1298 74.1985C64.8123 72.4318 65.3509 70.6687 66.1491 69.1529C67.2018 67.1546 68.8491 65.7985 71.3544 65.8125C69.7965 63.7441 69.1211 61.5792 68.9509 59.1125C68.9228 58.709 69.0719 58.2511 69.414 58.1073C69.7316 57.9739 70.293 58.316 70.393 58.7002L70.9737 60.9441L71.9807 63.2915C72.3983 64.2652 73.0684 65.0511 73.4544 66.0546C73.6561 66.2739 74.1737 66.4757 74.5597 66.5353L74.4439 62.3862C74.4333 62.0266 74.0263 61.2687 74.0193 60.9073C73.9649 58.4301 75.5526 54.9178 76.2 54.923C76.3912 54.923 76.6895 55.409 76.6193 55.6178L75.6088 58.5915L75.5298 59.7985C75.4737 60.6687 75.5386 61.5809 75.7 62.495C75.993 64.1564 76.0368 65.8055 76.1947 67.5037C77.0684 68.009 78.5579 67.0073 78.7281 68.4529C78.9053 69.9634 79.2281 71.4178 79.7368 72.8441L80.2088 74.1669C80.7123 75.5774 81.3965 76.9827 82.4298 78.0704L83.3246 79.0125C88.0474 79.5529 92.9579 78.4108 97.4526 76.6616L97.5509 78.2581C96.5825 78.7985 95.6596 79.2704 94.5789 79.5055L89.8158 80.5353C87.7965 80.9722 85.5737 81.2897 83.5947 80.5652L82.0386 79.995C79.8 79.1757 77.5579 72.7108 77.1982 69.6476L74.9088 69.1336C73.5228 67.788 71.5456 67.2213 69.7 67.9581C68.9544 68.2564 68.3737 69.0827 67.9649 69.7037C66.8123 71.4581 66.5947 73.309 67.1333 75.302C67.986 78.4546 69.5684 80.4195 72.1719 82.3827C74.0439 83.7932 75.5474 85.323 76.5544 87.495C77.6175 89.7862 79.0491 91.0827 81.5456 90.2002C80.1842 87.2266 79.0333 84.4967 78.2754 81.423C78.3912 81.1301 78.5456 80.823 78.7123 80.7108C78.907 80.5792 79.5526 80.8564 79.6018 81.088L79.8526 82.2441L82.8649 88.9037L86.3649 97.4809C88.5105 102.741 91.7561 104.03 94.9386 106.788L96.9193 108.502L99.5702 110.797L101.046 111.727L103.161 115.604L104.779 118.313C105.256 119.113 105.409 119.765 106.067 120.425L109.307 123.676L109.958 124.267L112.261 122.576C117.66 118.614 122.277 113.844 126.507 108.618L130.112 103.444C131.189 101.898 131.846 100.12 132.64 98.3722L132.154 94.8932C132.109 94.5704 132.165 93.8915 131.916 93.7599L131.207 93.3844C131.019 93.2844 131.002 92.6669 131.042 92.4564L132.105 86.9897L133.542 76.3616L133.891 73.9178C133.919 73.716 134.305 73.402 134.489 73.3564C134.674 73.3108 135.109 73.6827 135.098 73.8739L134.939 76.6423L134.667 79.3616L134.354 82.1739C135.735 82.8038 137.363 82.6739 138.821 81.9125C139.835 81.3827 140.328 80.1739 140.667 79.0722L142.195 74.1038L144.391 69.823C145.254 68.1423 145.874 66.4423 146.2 64.5827C146.693 61.7845 145.561 58.002 142.854 56.8002C141.011 55.9809 139.153 56.7073 137.63 57.7441C137.065 58.1283 136.588 58.3932 136.165 58.9529C135.825 59.6073 135.147 59.8494 134.495 59.3897L129.053 60.816C129.689 64.7143 129.709 68.9213 127.926 72.2985C127.665 72.795 126.967 72.8757 126.635 73.1195C125.8 73.7301 125.132 74.2266 124.114 74.5002L121.235 75.2739C118.726 75.9476 113.733 76.5669 111.544 75.6459C111.104 75.4599 110.861 75.4002 110.382 75.288C107.898 74.7073 105.504 68.2862 105.018 65.0915C103.679 64.6371 102.232 64.8845 100.816 65.5336C100.465 66.2143 100.777 67.2757 101.305 67.9915C101.611 68.4037 101.147 69.2353 101.119 69.6845L100.688 76.6669L100.439 79.9038C100.421 80.1336 99.9526 80.5178 99.7263 80.5073C99.5 80.4967 99.1035 80.0827 99.1053 79.8283L99.1228 77.1669L98.4737 77.3371C98.3193 77.3774 98.1246 77.0774 98.0176 76.916C97.6 76.2827 97.7561 76.002 98.0632 75.4178C98.8737 73.8827 99.0193 72.1002 99.1947 70.3704C99.3702 68.6406 99.2404 67.1125 98.9404 65.4388C98.7719 64.502 98.2807 63.7845 97.6614 62.9195L98.4246 61.8441C99.8509 62.0108 99.8456 64.0002 100.632 63.7178C102.07 63.2037 103.232 63.0634 104.751 63.1108C105.226 62.2459 105.589 61.0301 106.233 60.2704C106.967 59.5108 108.175 59.0213 109.195 58.6722C114.5 56.8546 120.005 56.2739 125.568 56.8687C125.991 56.9143 126.651 57.3423 126.646 57.709C126.637 58.3985 125.888 58.6388 125.286 58.5687L123.326 58.3406H119.805C115.516 58.6897 110.728 59.4669 107.084 61.5581L106.289 61.4423L106.421 63.2757C106.609 65.895 108.858 72.7687 111.425 74.0037L111.246 74.8845C111.553 74.5687 111.863 74.3441 112.24 74.3423L115.926 74.3301C118.725 73.995 121.479 73.6599 124.125 72.709L125.826 72.0985C126.454 71.1581 127.114 70.0669 127.307 68.8985C127.761 66.1581 127.711 63.4143 127.212 60.7178C127.095 60.0774 126.865 59.6388 126.475 59.0406C126.544 58.8037 126.967 58.0932 127.274 57.9687C127.695 57.7985 128.14 58.4599 128.405 58.795C128.754 59.2371 129.509 58.8248 129.946 58.7178L135.547 57.3423L136.933 56.1581L137.398 53.6669C137.442 53.4301 137.647 53.0827 137.828 53.002C138.009 52.9213 138.553 53.1336 138.626 53.3195C138.807 53.7792 138.807 54.5038 138.786 55.1388C143.06 53.709 146.465 55.8301 147.721 60.0002C149.084 64.5266 147.47 68.3301 145.202 72.388C143.998 74.5423 143.205 76.7266 142.651 79.1371C142.384 80.3002 141.926 81.3248 141.258 82.295C140.904 82.8073 140.363 83.0616 139.854 83.3564C138.105 84.3757 136.344 84.7757 134.256 83.7441L133.981 86.3073L133.586 89.1845L133.579 91.6441C135.065 91.7967 136.105 92.4862 136.909 93.6336L139.809 97.7669C139.965 97.9897 139.696 98.5704 139.505 98.7266C137.746 100.163 136.339 94.5739 133.712 93.2564C133.537 95.4406 134.693 95.688 134.604 96.4669C134.132 100.539 131.268 105.33 128.739 108.542L127.105 110.616L125.521 112.537L122.458 115.769L118.167 119.918L115.367 122.39L111.984 124.949C111.223 125.525 110.442 125.621 109.658 125.039L108.46 125.241C106.768 123.862 105.318 122.298 103.981 120.59L102.556 118.314L100.044 112.904L98.3597 112.235L98.0211 115.313L97.8246 121.009L97.4561 130.042L97.2544 133.846L97.1175 137.023L100.663 132.23C102.04 130.369 106.649 125.014 107.579 126.211C107.847 126.556 107.677 127.035 107.325 127.313C106.035 128.32 105.082 129.437 103.991 130.695L104.281 133.19L104.867 138.267L107.551 138.377C108.295 138.409 108.889 138.577 109.737 138.82L111.656 135.153L114.142 131.083L111.139 127.628C110.972 127.404 111.272 126.725 111.546 126.683C111.819 126.641 112.493 126.741 112.684 126.956L117.553 132.449L118.777 134.018L120.554 136.516C120.76 136.804 120.539 137.467 120.279 137.616C119.888 137.839 119.328 137.651 119.047 137.295L115.184 132.362L113.54 135.137L111.096 140.018L111.544 143.495L111.756 145.621L112.374 152.293L112.782 158.435L115.275 152.621L119.874 141.26L122.675 134.395L128.179 121.842L132.179 113.22L135.609 105.614L137.879 100.325C137.998 100.046 138.584 99.788 138.849 99.8529C139.114 99.9178 139.446 100.555 139.332 100.874C138 104.604 136.449 108.079 134.853 111.672L133.33 115.1L128.347 126.053L125.977 131.42L123.812 136.43L120.119 145.776L116.246 155.197L110.512 169.102L109.872 170.353L108.553 173.437L106.895 177.056L104.298 182.728L99.8825 191.793L98.0404 195.221L94.3404 202.383C94.0316 202.981 94.007 203.518 93.2176 203.59C92.786 203.63 91.7772 203.142 92.1246 202.456L94.4175 197.928L96.9597 193.095L98.6754 189.739L101.979 183.063L104.237 178.279L107.254 171.632L110.604 163.907C110.875 163.279 110.988 162.613 110.982 161.965L110.949 158.762L110.718 154.193L109.546 140.418C107.951 139.97 106.439 139.781 104.7 139.788L102.811 144.541L101.821 147.079L100.311 151.383L98.5895 157.723L97.2228 164.288C97.0421 165.158 96.8702 165.809 96.914 166.737L97.2491 173.934L98.1053 186.655C98.1351 187.095 97.7491 187.59 97.4333 187.669C97.1439 187.741 96.4333 187.441 96.4053 187.072L95.3105 172.793L95.0211 165.056L94.9772 162.739L94.9667 145.813L95.0456 143.716L95.2246 139.807L95.7176 129.428L96.0421 122.341L96.5333 113.749C96.5842 112.862 96.8018 112.207 97.2772 111.29C96.6421 110.525 95.7474 109.755 94.8351 109.072C94.1368 109.83 93.3807 110.014 92.4597 110.379L88.714 111.865L81.5123 114.848C77.0228 116.707 72.7877 118.814 68.5158 121.111L65.0597 122.969L60.9474 125.284C60.7211 125.411 60.0228 125.098 59.9351 124.89C59.8474 124.681 59.9316 124.149 60.1404 124.006L62.7597 122.191C69.8983 117.865 77.3947 114.411 85.1702 111.318L93.4772 108.013C91.8421 106.639 90.086 105.583 88.7105 104.106L86.8421 102.098C85.6912 100.863 85.0895 99.2195 84.4632 97.6423L82.0947 91.688C80.1597 92.7932 77.8246 92.3897 76.3754 90.816C75.6281 90.0055 75.2 89.0423 74.7281 88.0616L74.7316 88.0722ZM96.707 149.17L96.7246 153.732C96.7281 154.784 96.5439 155.83 96.9404 156.983C98.0579 152.837 99.1597 148.937 100.811 145.056L103.314 139.169L102.665 132.179L99.8123 135.956L98.1 138.672C97.9053 138.981 97.4965 139.146 97.0263 139.19L96.9456 141.234L96.7632 145.976L96.7053 149.172L96.707 149.17Z" fill="black"></path>
<path d="M186.686 199.808L188.335 193.033L189.054 188.293L190.028 181.615C190.263 180 190.644 178.326 190.463 176.693L189.802 170.701C189.598 168.857 189.621 167.107 189.846 165.257L190.589 159.15C190.819 157.263 190.656 155.492 190.465 153.605L190.242 151.403L189.726 147.322C190.1 142.826 189.547 138.026 188.316 133.645L186.389 126.798L184.84 122.571C184.237 122.442 183.921 122.289 183.498 121.931L181.595 120.317C176.465 117.285 171.36 114.389 165.861 112.063L156.209 107.98L154.6 107.138L151.81 105.898C151.53 105.773 151.195 105.284 151.232 105.021C151.391 103.896 153.272 104.494 154.863 105.154L166.64 110.036L173.088 113.07C176.805 114.819 180.296 116.824 183.719 119.047C184.753 119.719 185.472 120.659 185.735 121.733C186.721 122.14 187.256 122.905 187.567 123.856L190.189 131.908L191.411 137.721C192.077 140.892 191.789 144.091 192.012 147.319L192.16 149.459C192.328 151.882 192.982 154.208 192.96 156.668L192.246 163.843C191.874 167.582 191.905 171.057 192.605 174.749L192.723 177.208C192.84 179.666 192.07 181.971 191.788 184.403L191.314 188.493L190.614 193.357L190.314 195.028L189.325 199.119C189.163 199.787 188.981 200.236 188.403 200.433C187.751 200.656 187.109 200.571 186.689 199.81L186.686 199.808Z" fill="black"></path>
<path d="M108.565 192.048L107.142 193.648L103.058 198.663C102.6 199.227 102.437 199.911 101.528 200.041C101.275 200.077 100.718 199.891 100.6 199.667C100.482 199.442 100.537 198.848 100.714 198.628L105.819 192.318L107.153 190.814C111.628 185.105 116.409 179.837 121.27 174.453L127.014 167.03L130.396 162.512L134.423 156.686L143.998 142.09L144.403 141.465C144.495 141.325 144.186 140.998 144.058 140.86L140.881 137.36L137.832 133.746C137.521 133.377 137.309 132.781 137.572 132.441C137.925 131.983 138.514 131.902 138.995 132.237L141.598 130.541L148.365 126.598L148.328 124.512C148.242 119.584 148.358 114.758 148.809 109.839L148.939 106.57L146.158 103.688L142.5 99.4353C142.112 98.9844 141.591 98.5686 141.595 97.8984C141.595 97.6511 142.137 97.2879 142.381 97.316C142.625 97.3441 143.126 97.5405 143.295 97.7283L145.633 100.355L149.519 104.156C150.272 104.893 150.891 105.641 150.805 106.767L150.225 114.374L150.088 117.695C149.977 120.369 150.054 122.932 150.363 125.607C150.449 126.355 150.375 127.205 149.784 127.656L148.779 128.423L142.3 132.118L140.025 133.423L141.896 135.637L144.06 138.048L145.907 140.086C146.168 140.376 146.481 141.086 146.428 141.439C146.368 141.848 145.914 142.312 145.691 142.676L144.749 144.225L140.593 150.774L134.386 160.004L128.042 168.737L127.07 170.055L125.514 172.188L124.374 173.691L121.667 176.928L119.033 179.765L108.563 192.049L108.565 192.048Z" fill="black"></path>
<path d="M90.8053 193.924L89.0825 189.331L87.0369 182.959L82.2299 166.394L79.8351 158.049C78.6263 153.836 77.7421 149.698 77.293 145.34L77.1035 143.512L76.6404 141.417C76.7807 140.485 77.4667 139.722 78.0737 139.135L81.7351 135.593L84.5 133.177L81.486 130.256L79.6965 128.391C79.2684 127.943 79.307 127.498 79.707 127.073L80.8211 125.889C84.4263 122.057 87.6 117.987 90.8176 113.831C91.0421 113.542 91.6825 113.463 91.8737 113.663C92.1492 113.954 92.0842 114.431 91.8123 114.826C88.6772 119.364 85.3281 123.668 81.4421 127.735L83.707 129.975L85.7597 131.945L86.793 131.842C87.0193 131.819 87.4123 132.417 87.3263 132.638C87.1983 132.968 86.6141 133.415 86.3351 133.689L83.9351 136.043L81.7492 138.077L78.486 141.15L78.9878 144.673C79.4825 148.152 79.907 151.494 80.8913 154.928L86.1193 173.178L91.5825 191.019L92.2983 193.193C92.3825 193.449 92.0807 194.047 91.872 194.215C91.6439 194.398 90.9404 194.278 90.807 193.922L90.8053 193.924Z" fill="black"></path>
<path d="M39.4579 195.146L38.0789 198.772C37.8351 199.414 37.7579 200.018 37.0456 200.154C36.5368 200.253 35.3719 199.833 35.6491 199.132L37.0298 195.639L39.007 189.505L43.0912 180.119C45.0631 175.59 45.1438 170.063 47.9737 164.475L49.2474 161.186C49.9438 159.388 48.6649 154.49 49.6421 150.667C50.1947 148.505 51.2421 146.633 52.1403 144.604C53.4509 141.639 54.2403 138.609 55.1456 135.505L57.0491 128.977C57.5052 127.414 58.6544 126.211 59.4228 126.826C59.6175 126.982 59.707 127.581 59.5877 127.8C58.9438 128.977 58.6491 130.046 58.2982 131.305L55.4877 141.449C54.1702 146.204 51.1175 149.697 51.3228 154.065L51.5438 158.765C51.7544 163.244 48.9526 166.493 48.3228 169.168L46.8158 175.567L45.5895 179.593L45.0158 181.144L43.3035 185.07C41.8579 188.39 40.5281 191.609 39.4596 195.144L39.4579 195.146Z" fill="black"></path>
<path d="M152.342 201.337C152.047 202.09 151.825 202.551 151.116 202.66C150.674 202.728 149.626 202.288 149.907 201.604L152.333 195.651C152.604 194.988 152.333 194.191 152.342 193.49C152.386 189.976 153.07 186.612 154.153 183.269L156.64 175.586C157.049 174.325 157.163 173.248 157.098 171.937C156.956 169.077 157.709 166.372 158.332 163.612C159.175 159.877 160.204 156.388 161.591 152.835C162.414 150.725 163.391 148.837 164.716 146.997L169.853 139.856L176.607 130.827C176.726 130.669 177.218 130.572 177.407 130.621C177.628 130.677 177.791 131.272 177.646 131.474L174.163 136.267L172.475 138.797L167.339 146.29C165.965 148.293 164.582 150.172 163.674 152.449C161.989 156.665 160.872 160.935 159.886 165.356C159.298 167.991 159.016 170.462 159.128 173.172C159.184 174.509 158.698 175.814 158.267 177.053C157.089 180.423 156.095 183.749 155.295 187.23C154.761 189.553 154.439 191.802 154.612 194.151C154.732 195.781 153.972 197.172 153.389 198.662L152.342 201.341V201.337Z" fill="black"></path>
<path d="M66.0807 194.064C66.2491 193.057 65.9141 192.124 65.8527 191.182L65.5281 186.212L65.1877 179.189L64.6772 170.289L63.8948 169.08L61.4807 165.003L59.1334 160.856C58.2439 159.122 57.6018 157.373 57.0158 155.521L57.4877 154.917C57.6105 154.759 58.1369 155.142 58.2105 155.338C58.8807 157.133 59.8053 158.915 60.7755 160.586L64.1807 166.449C64.2912 164.956 64.0948 163.794 63.8807 162.436L61.8895 149.831C61.4491 146.438 61.1544 143.268 61.2334 139.872C61.4228 139.64 61.6755 139.391 61.8597 139.333C62.0439 139.275 62.3123 139.757 62.3334 139.957L62.9334 145.808L65.7509 163.322L66.6527 170.694L66.8105 174.031L66.9913 176.498L67.6439 188.28L68.0579 191.584C68.1772 192.54 68.2263 193.438 68.0807 194.391L67.2772 199.601L67.079 201.228C67.0263 201.659 66.4825 202.028 66.0474 202.08C65.6667 202.126 64.7895 201.71 64.8597 201.301L65.179 199.435L66.0825 194.064H66.0807Z" fill="black"></path>
<path d="M79.5719 29.0224L77.9281 30.5487L76.0334 32.3786C75.6351 32.7628 74.893 33.3312 74.3386 33.0259C74.0544 32.7751 74.2088 31.8066 74.4632 31.4996C75.4474 30.3066 76.4053 29.2523 77.5386 28.2365C83.0281 23.3172 86.2176 20.9137 93.3193 18.2365C95.3825 17.4575 97.4228 17.2084 99.6018 16.9224C102.505 16.54 105.381 16.5014 108.251 17.2066C109.777 17.5821 112.219 18.7961 112.279 20.1628C112.289 20.4119 111.709 20.8031 111.472 20.7417C110.504 20.4961 108.395 18.6891 104.909 18.5891C101.365 18.4891 97.8474 18.868 94.479 19.9294L91.1474 21.168C89.3912 21.8207 87.8474 22.8347 86.2298 23.7961C83.7755 25.254 81.6439 27.0961 79.5719 29.0224Z" fill="black"></path>
<path d="M129.628 169.586L134.395 169.172L145.43 168.248L149.607 168.02L150.144 165.163C149.216 165.072 148.435 165.012 147.632 165.183C144.702 165.804 144.814 163.295 142.974 161.734C142.505 161.639 141.546 161.891 141.116 162.144L135.911 165.213C133.991 166.344 131.86 166.681 131.698 165.514C131.577 164.644 132.805 165.076 134.453 164.105L138.439 161.762C140.816 160.363 143.37 158.912 144.828 160.939L146.009 162.581C147.361 164.462 148.407 162.883 150.76 163.423C152.49 163.82 151.975 166.653 150.944 168.49L150.628 169.325C150.547 169.541 149.965 169.595 149.667 169.616L146.479 169.839L143.675 170.058L139.544 170.42L135.528 170.623L129.726 170.842C129.498 170.851 129.067 170.446 129.011 170.242C128.954 170.039 129.379 169.609 129.626 169.588L129.628 169.586Z" fill="black"></path>
<path d="M138.286 42.1838C138.823 44.6101 138.963 46.8645 139.039 49.2733C139.065 50.1084 139.274 51.361 138.188 51.754C137.837 51.8803 137.332 50.9891 137.309 50.5557C137.074 45.9785 136.43 41.5206 134.956 37.175C134.251 35.0943 133.293 33.2943 131.835 31.6522C129.168 28.6452 126.096 26.1154 122.723 23.9557C121.149 23.0715 119.586 22.4382 117.826 22.9715L117.105 22.454C116.918 22.3189 117.191 21.7206 117.405 21.6206C120.619 20.1206 123.868 22.075 126.609 24.2592L128.858 26.0522L132.168 29.0592C133.751 30.4961 134.97 32.1891 135.904 34.1242L136.789 36.4066L138.018 40.968L138.286 42.1838Z" fill="black"></path>
<path d="M69.1 49.8224C68.4035 53.7575 70.1403 55.8768 68.5614 56.7908C67.3175 56.4136 67.2491 54.8452 67.1 53.3452C66.9982 52.3242 66.9456 51.3365 67.1 50.3066L67.4965 47.6821C67.6526 46.654 67.9772 45.5435 68.4561 44.568C70.2 41.0084 71.8017 37.5522 73.3491 33.9014C73.4614 33.6382 74.1614 33.4821 74.4035 33.5786C74.693 33.6926 74.9579 34.247 74.8193 34.6224L73.021 39.5031L71.928 41.9329L70.3666 44.9593C69.921 45.8242 69.6403 46.74 69.4684 47.7119L69.0947 49.8224H69.1Z" fill="black"></path>
<path d="M86.3509 63.8788C84.107 64.4455 82.1035 65.2753 79.9421 66.07C79.5193 66.2262 79.2035 66.4665 78.9596 66.8472C78.8386 67.0349 78.2807 67.0314 78.1281 66.8753C76.986 65.7121 79.2737 64.5016 81.1491 63.749C86.0474 61.7841 91.2491 60.7788 96.521 61.1384C97.0842 61.177 97.5614 61.3928 97.9982 61.7033L97.207 62.8279L93.9158 62.7437C91.3737 62.6788 88.8263 63.2507 86.3491 63.877L86.3509 63.8788Z" fill="black"></path>
<path d="M103.739 97.7665C101.465 97.6735 97.5035 97.4349 97.7141 96.2191C97.7807 95.8279 98.2667 95.5682 98.7299 95.6647C102.365 96.4296 105.998 96.3191 109.577 95.3945C112.323 94.7191 114.86 93.9068 117.365 92.6016L118.167 92.7665C118.379 92.8103 118.502 93.477 118.354 93.6419C117.374 94.7314 113.254 96.1086 111.186 96.6437C108.758 97.2717 106.328 97.8717 103.74 97.7647L103.739 97.7665Z" fill="black"></path>
<path d="M108.46 114.621C106.098 114.985 102.411 114.076 102.709 112.921C102.782 112.639 103.349 112.353 103.654 112.451C105.925 113.186 108.091 113.176 110.377 112.704L113.312 112.099C116.391 111.464 118.095 109.378 118.698 110.507C119.154 111.36 116.295 113.013 114.614 113.434L112.119 114.058L108.46 114.621Z" fill="black"></path>
<path d="M121.411 109.56C121.254 109.711 120.684 109.765 120.491 109.763C120.265 109.763 119.905 109.213 120.072 109.027L121.64 107.255L125.093 102.999C126.419 100.918 127.686 99.0249 128.712 96.7828L129.396 96.4442C129.588 96.3494 129.949 96.9828 129.853 97.1898L128.328 100.427L126.821 102.944C125.349 105.404 123.532 107.516 121.411 109.56Z" fill="black"></path>
<path d="M101.656 86.6583C100.009 85.5864 99.107 85.9846 98.7825 85.3092C98.6807 85.0987 98.9597 84.5443 99.1965 84.4952C100.261 84.2671 101.295 84.4425 102.135 85.0688C103.696 86.2285 105.554 86.0092 107.075 84.7671C108.597 83.525 110.746 82.3916 111.068 83.4618C111.137 83.6881 110.9 84.2513 110.675 84.3478L109.325 84.9285C107.081 87.1373 104.47 88.4899 101.658 86.6583H101.656Z" fill="black"></path>
<path d="M123.909 89.3967C124.479 91.9529 124.542 97.6809 123.225 97.7318C123.03 97.7388 122.695 97.3336 122.705 97.1353L122.926 92.795L122.732 90.5546C122.611 89.1546 121.593 87.9125 120.746 86.8125L119.144 84.7336C119.021 84.5757 118.974 84.1915 119.012 84.023C119.051 83.8546 119.725 83.7897 119.847 83.9266L122.586 87.0388C123.158 87.6897 123.726 88.5757 123.911 89.395L123.909 89.3967Z" fill="black"></path>
<path d="M165.128 166.286L163.774 167.982C163.607 168.191 162.993 168.337 162.765 168.247C162.504 168.145 162.416 167.454 162.616 167.184L166.053 162.544L168.072 159.982L169.844 157.659C169.989 157.47 170.433 157.344 170.612 157.373C170.826 157.409 171.03 158.059 170.94 158.27C170.407 159.538 169.558 160.621 168.723 161.695L166.265 164.852L165.128 166.288V166.286Z" fill="black"></path>
<path d="M135.991 146.767C134.561 147.706 132.561 147.385 131.963 145.788C131.328 144.095 132.572 142.365 134.284 142.016C135.282 141.813 136.311 142.249 136.889 143.139C137.663 144.327 137.216 145.965 135.991 146.769V146.767ZM135.721 144.541C135.632 143.606 134.716 143.342 134.205 143.576C133.581 143.86 133.009 144.472 133.412 145.246C133.593 145.592 134.5 145.742 134.909 145.606C135.24 145.493 135.756 144.913 135.721 144.542V144.541Z" fill="black"></path>
<path d="M62.3894 197.605C62.3403 197.965 61.4912 198.214 61.193 198.072C60.6842 197.83 58.9877 195.68 55.7544 194.393L52.8631 193.242C52.6649 193.163 52.4052 192.751 52.407 192.535C52.4245 191.259 58.1351 192.849 61.3701 195.803C61.8772 196.266 62.493 196.831 62.3894 197.607V197.605Z" fill="black"></path>
<path d="M102.754 30.3124C101.204 29.4089 99.8263 28.5089 98.2632 27.8563C96.2333 27.0949 94.3193 26.4633 92.1176 26.7019L91.593 26.2124C91.4562 26.0861 91.9369 25.6019 92.1298 25.5668C93.7193 25.2774 95.607 25.4581 97.2035 25.9388C99.6158 26.6107 101.644 27.6633 103.581 29.237L103.667 30.023C103.689 30.237 102.949 30.4247 102.754 30.3107V30.3124Z" fill="black"></path>
<path d="M92.6526 93.34C92.321 97.0523 95.0456 100.51 94.3175 101.061C94.1491 101.189 93.5579 101.122 93.4509 100.938C92.1666 98.7242 91.4544 96.4119 91.093 93.8505C91.5561 91.8242 92.2912 90.0768 93.1087 88.1698C93.1947 87.9698 93.5807 87.7014 93.7947 87.7102C95.0175 87.761 92.8754 90.8277 92.6509 93.34H92.6526Z" fill="black"></path>
<path d="M94.3772 32.5856C92.3789 32.0716 90.6017 31.4821 88.6017 31.1821C86.714 30.8979 85.3719 31.4927 85.2193 30.7979C84.9737 29.6874 89.0491 29.533 91.4474 30.3225L94.6877 31.3892C94.8614 31.447 95.0579 31.8699 95.114 32.0242C95.1807 32.2102 94.5807 32.6383 94.3772 32.5856Z" fill="black"></path>
<path d="M108.523 29.626C107.475 28.1821 106.046 26.2084 104.228 25.2646L102.133 24.1768C102.07 23.7119 102.688 23.3733 103.161 23.5102C106.07 24.2821 108.253 26.3207 109.681 28.9523L109.512 29.747C109.474 29.9312 108.684 29.8435 108.526 29.6242L108.523 29.626Z" fill="black"></path>
<path d="M76.2193 76.5524C75.0948 76.298 75.1316 74.1085 72.6456 72.0769C71.4842 71.1278 70.6684 71.8769 70.0755 71.4419C69.7281 71.1857 70.4491 70.3401 71.8263 70.2734C73.4825 70.6857 74.8456 71.812 75.686 73.2682C76.6263 74.9015 77.3263 76.8033 76.2211 76.5524H76.2193Z" fill="black"></path>
<path d="M83.1491 35.4681C81.4351 35.5769 79.5193 36.5804 79.4421 35.9015C79.3193 34.8208 82.2614 34.2102 84.0947 34.1173C85.4965 34.0453 87.0421 34.3173 88.414 34.5348C88.6386 34.5699 88.9666 34.9909 88.9596 35.1892C88.9509 35.4208 88.4947 35.812 88.2579 35.7839C86.4877 35.5681 84.9123 35.3576 83.1491 35.4699V35.4681Z" fill="black"></path>
<path d="M139.314 61.068C136.653 63.8136 137.191 66.768 136.211 66.8715C134.993 66.9996 135.875 62.4364 138.404 60.1873C139.868 58.8838 141.289 59.1663 141.24 59.7364C141.182 60.4014 140.333 60.0171 139.314 61.0698V61.068Z" fill="black"></path>
<path d="M92.2263 54.2932C89.714 54.6651 87.1158 55.5511 85.1263 57.0634C84.9702 57.1827 84.5228 57.2265 84.3526 57.1476C84.1491 57.0511 84.1544 56.4283 84.3333 56.2599C87.2158 53.5371 92.6474 52.3564 92.7737 53.8055C92.7895 53.9914 92.4404 54.2616 92.2263 54.2932Z" fill="black"></path>
<path d="M131.765 45.7838C129.909 44.1786 127.982 42.8908 125.816 41.74C125.672 41.5154 125.502 41.2014 125.509 41.0172C125.518 40.8031 126.019 40.5786 126.251 40.5821C128.675 41.5435 130.744 42.7944 132.5 44.6979L132.63 45.5242C132.665 45.7435 132.016 45.8487 131.765 45.7838Z" fill="black"></path>
<path d="M125.726 33.068C123.421 32.3224 121.188 32.0224 118.758 32.3452C118.509 32.2627 118.203 32.1382 118.096 32.0066C117.968 31.8469 118.272 31.3364 118.482 31.275C121.839 30.3101 127.025 31.3996 126.509 32.6926C126.423 32.9083 126.014 33.0662 125.728 33.068H125.726Z" fill="black"></path>
<path d="M117.01 52.0172C114.598 51.326 112.226 51.4243 109.774 51.8927C109.544 51.8909 109.186 51.8032 109.102 51.6471C109 51.4593 109.258 50.9769 109.481 50.8962C112.084 49.8997 114.77 50.0014 117.388 50.8067L117.749 51.5243C117.844 51.7137 117.254 51.9962 117.012 52.0155L117.01 52.0172Z" fill="black"></path>
<path d="M80.2965 40.2401C78.8895 40.5734 77.5316 41.412 76.4544 42.1769C76.2895 42.2945 75.6421 42.3033 75.6544 42.1208L75.7088 41.3103C77.9193 39.5611 80.4877 38.5629 83.3421 38.3682C83.6439 38.4015 84.0597 38.6261 84.0807 38.8454C84.1018 39.0647 83.7544 39.4225 83.5316 39.4752L80.293 40.2401H80.2965Z" fill="black"></path>
<path d="M129.151 39.0373C127.102 37.8005 125.181 36.8075 122.867 36.4478C122.693 36.2847 122.465 36.0356 122.439 35.8706C122.407 35.6741 122.761 35.3759 123.004 35.2373C125.521 35.6092 127.833 36.3198 129.789 37.9145L129.981 38.6689C130.023 38.8373 129.488 38.9741 129.153 39.0391L129.151 39.0373Z" fill="black"></path>
<path d="M74.207 48.851C74.0193 49.1054 73.6158 49.3527 73.4175 49.2808C73.2193 49.2089 73.121 48.7089 73.1596 48.4282C74.7 46.0633 76.893 44.4492 79.4667 43.251C79.714 43.3106 80.0684 43.4176 80.2263 43.5019C80.4053 43.5966 80.193 44.1176 80.0281 44.2405C77.8088 45.4159 75.7544 46.7475 74.2053 48.8527L74.207 48.851Z" fill="black"></path>
<path d="M134.068 51.3032C134.137 51.4348 134.005 52.0821 133.867 52.0558L133.188 51.919L128.326 47.4523C128.302 47.212 128.286 46.8488 128.314 46.6716C128.342 46.4944 128.861 46.5137 129.072 46.5348L133.495 50.1997L134.068 51.305V51.3032Z" fill="black"></path>
<path d="M75.4245 52.3718C73.9175 54.5402 74.1403 56.1578 73.2193 56.0157C72.9544 55.9753 72.7035 55.4227 72.7912 55.1016C73.3701 53.0139 74.5315 51.3753 75.9684 49.8315L76.593 49.263C76.7421 49.128 77.3421 49.4543 77.3947 49.7069L76.0473 51.4736L75.4245 52.3701V52.3718Z" fill="black"></path>
<path d="M121.46 28.1267C119.223 27.8917 117.218 28.2531 115.302 29.2004C115.133 29.1706 114.728 29.1267 114.742 29.0127L114.819 28.325C116.118 27.3653 117.491 26.9215 119.135 26.8074C120.565 26.546 122.026 27.1039 121.891 27.5057C121.842 27.6496 121.691 27.8443 121.461 28.125L121.46 28.1267Z" fill="black"></path>
<path d="M134.172 55.4443C134.482 55.7549 134.551 56.2057 134.321 56.5058C134.047 56.8636 133.521 56.8356 133.186 56.4759L129.949 52.9935C129.791 52.8233 129.865 52.211 130.051 52.0759C130.237 51.9408 130.718 52.0338 130.904 52.2163L133.139 54.4075L134.172 55.4461V55.4443Z" fill="black"></path>
<path d="M109.014 115.527C110.314 117.143 111.935 120.157 110.947 120.332C110.74 120.369 110.242 120.234 110.109 120.006L108.375 117.071C108.219 116.806 107.814 116.429 107.73 116.113C107.675 115.907 107.9 115.436 108.081 115.341C108.291 115.23 108.858 115.33 109.014 115.525V115.527Z" fill="black"></path>
<path d="M92.8105 69.7736C92.3596 70.1736 91.6123 70.2701 91.1053 70.056C90.5316 69.8122 90.2421 69.2315 90.3 68.5157C90.3456 67.9666 90.7947 67.4543 91.4737 67.2683C92.1526 67.0824 92.8351 67.3262 93.1351 67.8227C93.4947 68.4192 93.4421 69.2122 92.8088 69.7718L92.8105 69.7736Z" fill="black"></path>
<path d="M116.125 65.8496C115.489 66.1934 114.754 66.0864 114.361 65.7215C113.881 65.2759 113.747 64.6303 113.975 64.0759C114.218 63.4847 114.711 63.1022 115.456 63.1075C116.116 63.111 116.735 63.6075 116.919 64.2127C117.079 64.7373 116.744 65.5145 116.126 65.8496H116.125Z" fill="black"></path>
<path d="M113.579 82.0736C112.488 82.4298 112.995 80.3842 111.016 79.4982C110.793 79.3982 110.526 78.9473 110.598 78.7403C110.67 78.5333 111.191 78.1929 111.432 78.2385C112.846 78.507 113.888 79.7491 114.058 81.2403C114.09 81.514 113.802 82.0017 113.579 82.0736Z" fill="black"></path>
<path d="M115.088 20.1705C115.726 21.3477 115.435 22.4196 114.797 22.488C114.595 22.5108 114.204 22.2284 114.149 22.0319L113.763 20.6371C113.697 20.3968 113.988 19.9477 114.204 19.874C114.419 19.8003 114.972 19.9564 115.089 20.1705H115.088Z" fill="black"></path>
<path d="M101.135 175.241C100.925 175.067 100.886 174.458 100.979 174.241C101.088 173.988 101.595 173.609 101.86 173.695C102.458 173.888 102.519 174.465 102.332 174.863C102.163 175.218 101.595 175.616 101.135 175.241Z" fill="black"></path>
<path d="M102.37 166.996C102.186 166.78 102.242 166.068 102.419 165.889C102.597 165.71 103.161 165.577 103.356 165.736C103.672 165.994 103.695 166.554 103.581 166.814C103.397 167.231 102.73 167.419 102.37 166.996Z" fill="black"></path>
<path d="M107.044 161.744C106.761 161.709 106.472 161.13 106.565 160.898C106.658 160.667 107.005 160.167 107.258 160.084C107.589 159.977 107.96 160.514 107.96 160.802C107.96 161.193 107.786 161.839 107.044 161.744Z" fill="black"></path>
<path d="M105.981 154.399C105.709 154.371 105.433 153.746 105.509 153.502C105.589 153.243 105.993 152.797 106.286 152.832C106.646 152.876 106.903 153.341 106.895 153.59C106.881 153.978 106.656 154.469 105.981 154.397V154.399Z" fill="black"></path>
<path d="M104.667 147.631C104.428 147.582 104.256 146.882 104.356 146.654C104.467 146.402 104.904 145.982 105.179 146.042C105.558 146.126 105.691 146.731 105.616 147.061C105.547 147.358 105.218 147.742 104.667 147.63V147.631Z" fill="black"></path>
<path d="M101.99 159.421C101.379 159.551 101.111 158.939 101.191 158.511C101.272 158.082 101.76 157.707 102.216 157.97C102.693 158.246 102.607 159.289 101.99 159.421Z" fill="black"></path>
</svg>