<svg width="220" height="220" viewBox="0 0 220 220" fill="none" xmlns="http://www.w3.org/2000/svg">
<path d="M138.779 32.346L140.27 34.4863C142.288 37.381 144.077 43.2284 142.284 45.9056C142.174 46.0688 141.561 46.1477 141.388 46.1512L142.363 48.8775C142.87 50.2951 142.798 51.9881 141.791 53.1933C140.947 54.2038 141.825 54.7968 141.125 56.4653C143.439 57.6126 143.556 61.053 142.779 63.6723C142.211 65.5898 141.884 67.453 142.119 69.4845C142.272 70.8056 142.318 72.1249 142.198 73.4337C142.028 75.2828 140.339 77.3003 138.589 76.6407C138.425 79.2916 138.111 81.7968 136.93 84.1424C136.26 85.4723 135.318 86.5758 134.416 87.7986L134.118 89.3916L133.382 92.5073C134.453 93.1758 135.119 93.981 135.635 95.0793C137.453 98.9442 138.382 104.151 138.904 108.479C139.251 111.355 139.044 114.149 138.128 116.848C137.437 118.883 136.556 120.397 134.97 121.842C131.405 125.093 127.619 127.993 123.175 129.995C118.33 132.179 115.509 132 110.481 130.556C105.644 129.167 100.972 127.151 96.8825 124.158C92.9474 121.278 90.0754 117.413 87.6017 113.281C86.1649 110.883 85.1088 108.444 84.1491 105.835L83.6246 103.834L77.4333 106.911L71.5526 109.974L66.1158 112.607L59.4 115.548C56.2912 116.909 53.314 118.386 50.5737 120.4C49.9 120.895 49.2368 121.642 48.3035 121.093C47.8649 120.097 49.3965 118.788 50.6351 118C52.693 116.69 54.7386 115.514 56.9824 114.521L64.8877 111.021L70.5719 108.293L76.1123 105.404L81.8421 102.537L84.186 101.495L85.0368 99.081L87.1596 93.1302C87.5105 92.1442 88.1754 91.3951 89.1912 90.7863C87.3298 88.5845 86.4228 86.0021 85.7684 83.1758C83.7614 84.6231 81.3316 82.4231 80.9386 80.6337L80.4088 78.2144C80.0649 76.646 79.6333 75.3775 78.7281 74.0898C76.5754 71.0249 77.5807 68.7477 77.2035 65.6372C77.0246 64.1582 77.6544 62.7372 78.9614 62.2109C77.3 60.7951 77.0351 58.7635 77.3561 56.6267C76.7491 56.1144 75.9754 55.4582 75.7579 54.5968C75.5263 53.6758 75.2544 52.7144 75.2824 51.76C75.3351 50.0372 75.9158 48.4109 76.5035 46.8284L76.0509 46.4109C75.293 45.5267 75.3579 44.3688 75.4825 43.2933C75.6684 41.6705 75.8544 40.1407 76.2807 38.5723C77.8807 32.7038 79.6228 30.4249 84.2649 26.5389C89.2 22.4091 94.6579 19.2424 100.856 17.3723C106.611 15.6354 113.079 16.7126 118.756 18.5846L122.991 19.981C125.107 20.6793 128.2 21.8688 128.512 23.8688C128.544 24.074 128.261 24.581 128.074 24.646C127.174 24.96 126.768 23.3302 123.942 22.3442L119.011 20.6231C114.582 19.0775 109.782 18.074 105.089 18.4565C98.8421 18.967 89.9789 23.9635 85.2474 28.2354L83.5895 29.7337C81.007 32.067 79.0596 34.9144 78.3246 38.3495L77.7281 41.1337C79.3579 39.1302 84.8105 33.1231 85.8123 34.2635C85.9596 34.4319 85.8544 34.9021 85.6403 35.1196L79.1947 41.6442C78.1053 42.7477 77.4088 44.346 77.4316 45.8249C78.193 46.4021 78.4702 46.9898 78.0491 47.9109C77.0158 50.1775 76.7561 52.3249 77.5754 54.5723C78.014 54.453 78.393 54.3547 78.6017 54.3933C78.8456 54.4389 79.186 55.0161 79.1544 55.2653L78.8403 57.7653C78.6807 59.0407 79.2754 60.3828 79.9175 61.2056C80.0789 61.4126 80.0474 62.1109 80.2561 62.1337C80.521 62.1617 80.7719 61.9267 81.0175 61.7267L83.7421 59.5091C84.0491 59.2582 84.6561 58.8512 85.0053 58.9407C85.986 59.1916 86.207 58.5144 86.8105 58.2302C88.8246 57.2828 90.9509 56.7477 93.1491 56.2881C96.9912 55.4828 100.775 55.1126 104.667 55.6723C105.361 55.7723 106.405 55.9459 106.763 56.5284C107.121 57.1109 107.267 57.8372 107.491 58.6056C109.209 57.967 110.977 57.6337 112.872 58.1898C112.975 57.1881 113.088 56.3249 113.521 55.4372L115.235 54.7038C118.704 53.646 122.202 53.1021 125.812 53.0863C128.125 53.1302 130.281 53.3003 132.521 53.7582C132.681 53.8635 133.125 54.0565 133.104 54.2196L132.984 55.1249C134.037 54.4617 135.151 54.074 136.291 54.9161C136.305 54.2793 136.118 53.6354 135.819 52.9582C134.551 51.0267 133.746 48.953 133.258 46.674C133.272 46.5179 133.307 46.167 133.419 46.16C134.653 46.0951 134.974 48.2337 135.254 48.8021L136.87 52.0828C137.449 53.2582 137.946 54.4091 137.746 55.7196L139.07 56.5196C139.2 56.5986 139.554 56.6003 139.574 56.4653L139.663 55.7898C139.998 53.2758 139.153 52.36 139.711 51.8933C139.868 51.76 140.228 51.8144 140.663 51.9214C140.982 51.0319 141.028 49.8302 140.672 48.8126L140.042 47.0109C139.96 46.7758 139.961 46.1565 140.149 46.0424C140.337 45.9284 140.714 45.8179 141.018 45.7284L141.193 43.1565C141.484 38.8916 137.83 32.446 133.837 30.2758L135.218 33.1512C135.302 33.3267 135.072 33.7723 134.918 33.8231C134.009 34.1249 133.463 32.5635 133.091 31.9916L130.937 28.6775L129.472 26.8407C129.358 26.6968 129.375 26.2968 129.447 26.1477C129.532 25.9688 130.181 25.8635 130.337 26.0074L132.225 27.7617L133.102 27.9582C135.3 28.9582 137.286 30.3828 138.784 32.3442L138.779 32.346ZM131.418 66.3091C132.649 63.4495 132.979 60.4828 132.83 57.3512L132.965 55.846C132.977 55.7126 132.854 55.281 132.735 55.3144L132.267 55.4424C127.921 54.674 123.554 54.6635 119.233 55.5214C117.63 55.8109 116.198 56.1828 114.726 56.8144C114.121 60.2267 115.621 64.5617 117.472 67.453C118.153 67.7758 119.056 67.8845 119.826 67.953C123.507 68.281 127.905 67.6477 131.418 66.3109V66.3091ZM95.3754 120.474L97.5491 122.376L98.507 120.435L101.851 115.021C102.467 114.025 103.347 113.293 104.589 113.176C105.102 113.127 105.653 114.042 105.293 114.402C104.525 114.883 103.893 115.395 103.347 116.169C101.709 118.486 100.311 120.876 99.0509 123.442C101.189 124.837 103.195 125.913 105.461 126.844C108.758 128.199 112.128 129.334 115.646 129.611C116 128.846 116.33 128.242 116.821 127.572C115.475 125.102 114.509 122.386 113.768 119.555C113.535 118.66 113.204 117.583 112.489 117.004C110.96 115.762 108.489 115.995 106.893 114.656C106.709 114.318 107.295 113.413 107.67 113.513L110.928 114.381C113.47 115.058 114.632 116.346 115.34 118.858C116.053 121.383 116.805 123.69 118.014 126.02L119.665 123.839C120.616 122.585 119.875 119.642 121.532 118.197L125.649 114.602C127.163 113.279 128.233 111.692 128.975 109.828C129.307 108.995 130.032 107.935 129.942 107.067C129.868 106.353 129.674 105.797 129.758 105.071C130.318 100.171 131.028 95.3916 132.042 90.6372C131.575 90.9284 131.265 91.1582 131.009 91.1442C130.705 91.1284 130.363 90.4617 130.486 90.2231C130.886 89.4407 131.251 88.874 131.77 88.2459C135.6 83.6109 136.582 81.6407 136.891 75.4424L136.988 73.4916L137.075 70.8179C137.288 70.6775 137.842 70.6758 137.982 70.8249C138.1 70.9495 138.404 71.3038 138.414 71.4758L138.621 74.9249C140.17 74.9617 140.6 72.7407 140.474 70.9003L140.233 67.3495C140.175 66.5003 140.467 65.4775 140.646 64.6565L141.335 61.4951C141.554 60.4933 141.291 59.2758 140.733 58.3688C140.279 57.6284 139.023 59.267 138.068 58.2337L138.172 60.1003C138.191 60.46 137.595 60.9968 137.291 60.9056C136.889 60.7845 136.651 60.3109 136.618 59.8354L136.439 57.3881C136.33 57.1495 135.823 56.7758 135.588 56.874L134.586 57.2881C134.619 60.6372 134.549 65.1495 132.458 67.7179L130.498 68.5512C126.819 69.5617 118.154 70.7898 116.291 68.4635C114.428 66.1372 113.463 63.0582 112.933 60.0565C111.261 59.4038 109.458 59.6547 107.94 60.5214C107.972 63.3635 107.502 66.0337 106.526 68.6003C106.112 69.6916 105.504 70.3179 104.396 70.7512C102.175 71.6214 99.8018 71.9933 97.3702 72.1495C94.7351 72.3196 89.8947 72.56 88.7842 70.7074C87.1614 68.0003 86.3649 64.9109 85.8877 61.7916C85.5035 61.3775 84.4421 61.2951 84.0509 61.8354L84.4316 66.0512C84.1579 66.1951 83.8351 66.3249 83.6807 66.274C82.8456 66.0003 82.8526 64.1951 82.7772 62.7319C81.7421 63.2582 81.9421 64.3424 80.7965 63.9144C80.4386 63.781 79.721 63.7898 79.4719 64.0214C79.2614 64.2161 78.921 64.7951 78.9614 65.0933L79.3298 67.7179C78.8439 69.8337 79.2561 71.7828 80.5105 73.5389C82.7 76.6074 81.9386 79.0933 83.1649 80.9986C83.6965 81.8249 84.6912 82.0775 85.3842 81.5407C85.3754 81.1933 85.4509 80.4565 85.7246 80.3126C86.3193 80.0003 86.9719 80.553 87.1053 81.1635C87.6228 83.5249 88.1719 85.8758 89.3842 87.9968C90.4737 89.9038 92.0544 91.3828 93.4877 92.9933L95.6474 95.4231C95.993 95.8109 96.5316 96.7424 95.714 97.0126C95.1579 97.0126 94.4175 96.1547 93.8825 95.6144L94.9123 100.53C96.4965 102.593 98.2789 104.534 100.172 106.3L102.814 108.765L107.03 112.502C106.898 113.142 106.095 113.614 105.533 113.432C101.621 110.104 97.8614 106.749 94.5825 102.823C92.6158 100.467 91.2017 97.8775 90.5246 94.9073C90.3632 94.2021 90.6789 93.5635 91.2211 93.0845L90.393 92.2407C89.321 92.7056 88.9509 93.5845 88.607 94.5845L86.9035 99.5249L85.4965 103.581C85.5053 104.56 86.0281 105.774 86.4263 106.7L87.5491 109.314C89.5649 113.421 92.0228 117.241 95.3807 120.472L95.3754 120.474ZM104.561 68.7495C105.796 65.7547 106.391 62.7828 106.089 59.6617L105.765 57.8161C106.03 57.7038 106.284 57.6179 106.226 57.5249C106.182 57.453 106.046 57.2302 106.072 57.2758C105.802 57.4109 105.328 57.5758 105.112 57.5424C103.146 57.2477 101.344 57.081 99.4211 57.2688L96.6702 57.5389C93.4807 57.8512 90.4982 58.5793 87.5088 59.8249C87.5509 63.1179 88.586 67.3652 90.3596 69.9407C92.3246 70.7319 94.4947 70.5758 96.5228 70.4442C99.3123 70.2635 101.996 69.9459 104.56 68.7495H104.561ZM135.34 118.13C134.87 117.323 134.572 116.658 134.295 115.863L133.209 112.744C133.033 112.241 132.649 111.692 132.068 111.611C131.556 111.539 130.732 110.988 130.984 110.448C131.372 109.611 132.66 109.63 133.351 110.188C133.896 110.63 134.546 111.369 134.775 112.037L136.23 116.274C137.318 113.639 137.411 111.051 137.026 108.421L136.468 104.59C136.033 101.604 134.925 96.3161 133.026 94.3302L132.668 96.2653C133.021 96.8424 133.289 97.4021 133.321 98.0547C133.433 100.432 133.067 102.614 132.435 104.869C131.804 107.123 131.068 109.3 130.051 111.446C129.623 112.348 129.342 113.325 128.609 114.055L125.714 116.937L122.682 119.707C121.779 120.532 122.268 122.972 121.412 124.558L117.591 129.581C119.189 129.509 120.537 129.081 121.958 128.428C126.616 126.293 132.451 122.32 135.34 118.132V118.13Z" fill="black"></path>
<path d="M199.647 201.833L199.007 206.121C198.933 206.614 199.07 207.118 198.677 207.365C198.209 207.66 197.654 207.532 197.3 207.072C197.068 206.772 196.798 206.177 196.858 205.839L197.635 201.47C197.798 197.898 197.239 194.133 195.896 190.786C194.96 188.449 194.523 186.388 194.46 183.877C194.325 178.416 193.082 173.233 191.167 168.149L189.154 161.89L186.496 149.802C185.137 143.619 183.528 137.654 181.211 131.765L176.691 121.735C175.693 119.519 174.342 117.623 172.947 115.651C169.849 113.172 166.47 111.47 162.693 110.283L153.198 107.295L140.539 102.804C139.556 102.454 138.786 101.963 138.021 101.253C137.767 101.016 137.94 99.9457 138.284 100.061L141.739 101.223L147.382 103.167L155.535 106.037L163.177 108.39C165.309 109.046 167.272 109.916 169.237 110.928C172.577 112.651 174.495 114.167 176.451 117.425C179.511 122.521 181.865 127.835 183.93 133.433C185.991 139.019 187.416 144.63 188.66 150.442L190.856 160.712L192.089 164.923L194.051 170.507C195.412 174.386 196.105 178.339 196.351 182.447L196.486 184.705C196.393 186.69 197.075 188.2 197.756 189.958C199.202 193.695 199.675 197.698 199.646 201.832L199.647 201.833Z" fill="black"></path>
<path d="M32.1385 204.034C32.1192 205.458 32.3842 206.853 32.6859 208.211C32.8157 208.798 32.7684 209.214 32.2315 209.553C31.9175 209.751 31.1543 209.506 30.9912 208.991C30.1771 206.435 29.935 203.806 30.2561 201.125L31.3017 195.309C33.0684 188.721 31.3017 184.663 32.4333 180.509L33.7877 175.534C34.4666 173.042 35.1122 170.614 35.1736 167.988C35.3052 162.36 35.8824 156.932 36.9543 151.383L39.007 140.76C40.0789 135.209 42.3684 127.663 45.5561 123.095C45.9701 122.5 46.928 121.579 47.6105 122.004C48.3701 122.477 47.742 123.516 47.3438 123.991C44.8754 126.948 42.4666 134.256 41.6245 138.284L39.7122 147.437L38.9596 151.602C38.107 156.316 37.2982 160.96 37.2526 165.783C37.2192 169.332 36.8087 172.574 35.8052 175.976L34.8508 179.211C34.1526 181.576 33.7842 184 34.0421 186.49C34.3999 189.942 33.9964 193.144 33.1508 196.47C32.514 198.974 32.1754 201.458 32.1421 204.034H32.1385Z" fill="black"></path>
<path d="M169.754 207.579C168.737 207.418 168.474 206.42 168.632 205.62C168.814 204.697 168.742 203.877 168.386 203.021C167.265 200.325 169.079 197.688 169.091 194.734C169.1 192.481 167.568 190.239 168.221 186.313L169.353 179.516C169.837 176.604 170.254 173.806 170.263 170.82C170.274 167.249 169.872 163.763 169.425 160.181C169.058 157.234 169.054 154.537 169.458 151.563L171.133 139.227L171.163 132.139C171.167 131.192 170.974 130.351 171.14 129.339C171.851 129.4 172.332 129.927 172.451 130.544L172.896 132.851C173.249 137.227 172.853 141.428 172.254 145.786L170.835 156.144L171.905 165.649L172.167 168.744C172.472 172.349 171.961 175.872 171.382 179.463L170.11 187.346C169.916 188.556 170.028 189.711 170.349 190.883C171.444 194.89 171.132 196.102 170.219 199.865C170.01 200.728 169.881 201.556 170.261 202.376C170.839 203.618 170.782 205.021 170.582 206.283L170.635 207.202C170.647 207.402 170.014 207.62 169.756 207.579H169.754Z" fill="black"></path>
<path d="M71.0211 206.996C70.4456 208.805 71.6877 209.568 71.2491 209.946C71.1263 210.053 70.672 210.209 70.4825 210.182C69.6123 210.06 68.8632 209.049 68.9 208.07C68.9755 206.091 70.0351 204.66 68.9018 202.847C67.9913 201.389 67.7983 199.779 68.2597 198.065C69.2667 194.323 69.3351 190.502 68.3386 186.721C67.5877 183.874 67.5141 181.191 67.6579 178.246L68.1316 168.591C68.2053 167.088 68.2263 165.721 68.0737 164.195C67.6544 159.97 66.8702 155.93 65.886 151.805C65.7772 151.351 65.8123 150.612 66.1491 150.403C67.2351 150.389 67.593 151.372 67.7684 152.254L69.6404 161.749C70.2544 164.867 70.0474 167.881 69.8965 171.046L69.4632 180.179C69.3614 182.333 69.7018 184.363 70.2106 186.456L70.9614 190.953C71.3983 193.572 70.8298 196.186 70.1527 198.739C69.8105 200.03 69.9509 201.067 70.6141 202.165C71.5193 203.665 71.5404 205.36 71.0211 206.995V206.996Z" fill="black"></path>
<path d="M80.3596 47.7845C78.6017 46.9266 83.4965 41.5249 86.3912 39.5722L90.7087 36.6599L91.8158 36.1249C92.021 36.0249 92.5035 36.0705 92.6772 36.2161C92.9298 36.4284 92.7684 36.988 92.4859 37.2126L89.5333 39.567C90.528 40.167 91.3491 40.0284 92.3351 39.8863C96.428 39.2968 100.232 37.8652 103.944 36.0529C104.435 35.8126 105.288 35.6863 105.449 36.3722C105.442 36.7442 104.839 37.3634 104.405 37.5968C100.551 39.6792 96.3508 41.2091 91.9824 41.5178C90.6228 41.6143 89.5719 41.1336 88.5438 40.2336C87.7579 40.5933 87.093 41.1354 86.4105 41.6722C84.3087 43.3249 82.5087 45.1494 81.1842 47.5213C81.0473 47.767 80.5649 47.8845 80.3579 47.7827L80.3596 47.7845Z" fill="black"></path>
<path d="M64.9685 161.165C65.0878 161.455 64.9422 161.972 64.7439 162.051C63.6597 162.481 60.7948 154.913 59.7632 152.525L57.0579 146.272L52.5685 138.834L52.3509 138.265C52.2983 138.127 52.5193 137.888 52.693 137.753C53.1878 137.906 53.9544 138.225 54.2965 138.685C57.1807 142.556 59.3106 146.746 61.0386 151.239L62.7404 155.662L63.4772 157.565L64.9667 161.167L64.9685 161.165Z" fill="black"></path>
<path d="M115.06 37.965L110.997 39.1001C109.184 39.6053 107.351 39.7123 105.565 38.986C105.375 38.8615 105.058 38.5194 105.158 38.3544C105.291 38.1369 105.667 38.0755 105.979 38.0632C111.049 37.8615 115.926 36.2562 120.153 33.5211C122.102 32.2597 123.612 30.7264 124.604 28.6369C124.677 28.4808 124.995 28.2264 125.161 28.2246C125.826 28.2194 126.086 29.5562 125.577 30.4632C123.481 34.2018 119.16 36.5106 115.058 37.965H115.06Z" fill="black"></path>
<path d="M136.435 126.489C133.498 130.898 122.968 137.382 121.421 134.795C121.358 134.689 121.633 134.41 121.772 134.36L125.065 133.133C129.312 131.061 132.93 128.209 136.061 124.628C136.775 125.033 136.833 125.891 136.435 126.489Z" fill="black"></path>
<path d="M113.742 134.986C113.995 135.281 112.597 135.949 110.558 135.411C106.612 134.367 103.007 132.783 99.5316 130.644C98.1264 129.779 95.7053 127.962 96.1948 127.177C96.2702 127.056 96.6808 126.979 96.8088 127.062L98.8351 128.376C103.256 131.362 108.165 133.288 113.347 134.523L113.746 134.986H113.742Z" fill="black"></path>
<path d="M59.9228 167.268C61.714 168.918 65.6386 173.532 64.7053 174.44C64.5702 174.572 64.0351 174.479 63.9193 174.316C61.9983 171.644 59.679 169.528 57.3526 167.214L52.8614 162.744C52.5298 162.414 52.1526 161.489 52.7053 161.293C53.4579 161.235 54.2404 162.037 54.8 162.551L59.9246 167.27L59.9228 167.268Z" fill="black"></path>
<path d="M174.628 157.156C174.291 157.839 173.914 158.634 173.421 159.056C173.153 159.141 172.54 158.528 172.625 158.274L173.554 155.486C175.082 152.027 176.149 148.488 176.633 144.732L176.946 144.209C177.114 143.927 178.33 144.474 177.925 147.207C177.404 150.713 176.225 153.925 174.63 157.155L174.628 157.156Z" fill="black"></path>
<path d="M184.093 199.275L181.584 198.915C178.472 198.929 175.542 199.615 172.807 201.065C172.468 201 172.009 200.859 171.83 200.708C171.628 200.537 171.912 199.856 172.154 199.682C174.205 198.214 176.595 197.637 179.102 197.317L181.933 197.307C183.242 197.301 184.611 197.675 184.788 198.672C184.823 198.873 184.312 199.307 184.093 199.275Z" fill="black"></path>
<path d="M87.9561 31.1669L87.4298 31.4283C87.0052 31.6388 86.7403 30.4055 88.3754 28.3564C90.5807 25.5932 93.6263 23.6283 97.0631 22.695C97.8175 22.4897 98.6 22.5897 99.4491 22.7441C99.3649 23.2581 99.028 23.5967 98.5298 23.8002C94.228 25.0055 90.5754 27.4862 87.9561 31.1651V31.1669Z" fill="black"></path>
<path d="M119.209 28.2983C117.711 32.3966 109.149 36.244 107.582 34.2194C107.493 34.1036 107.844 33.7948 108.002 33.7615C112.039 32.9352 115.577 30.8492 118.172 27.6597C118.288 27.5176 118.668 27.3983 118.83 27.4299C119.023 27.4685 119.283 28.0913 119.209 28.2966V28.2983Z" fill="black"></path>
<path d="M64.7316 200.296C64.8053 200.454 64.514 200.947 64.3561 200.97C64.1684 200.998 63.8158 200.935 63.6035 200.798C60.4947 198.795 57.2246 197.386 53.5702 196.781C53.1386 196.709 52.7421 196.242 52.6035 195.786C55.3754 194.775 60.1491 196.832 62.7965 198.416C63.5614 198.874 64.3193 199.407 64.7298 200.296H64.7316Z" fill="black"></path>
<path d="M103.798 31.8716C101.489 32.3085 100.1 31.4979 100.453 31.1348L100.811 30.7681C104.798 30.4611 108.432 29.0646 111.761 26.8348C112.1 26.7014 112.57 26.7435 112.789 26.9278C112.981 27.0892 112.895 27.7085 112.637 27.9348C110.16 30.1207 107.063 31.2523 103.796 31.8699L103.798 31.8716Z" fill="black"></path>
<path d="M133.575 43.8755L132.532 42.5614L128.175 37.4369C127.226 36.3211 126.112 35.2667 125.591 33.8439C125.751 33.3193 126.637 33.5035 127 33.8965L130.519 37.7176C132.123 39.4579 133.402 41.279 134.575 43.3369L134.377 43.9491C134.321 44.1211 133.696 44.0263 133.575 43.8737V43.8755Z" fill="black"></path>
<path d="M136.544 38.5226C137.812 40.3981 140.463 45.1525 139.272 45.5191C139.065 45.5823 138.719 45.4139 138.421 45.2069C137.307 42.5683 136.002 40.1069 134.467 37.67V37.1788C134.463 36.7244 135.556 37.0665 136.542 38.5244L136.544 38.5226Z" fill="black"></path>
<path d="M82.8211 56.7003C82.1158 58.3933 82.0123 60.4722 81.4913 60.1389C79.6474 58.9652 81.9807 54.7126 83.3351 52.4424C83.979 52.4985 84.2421 53.2968 84.0158 53.8389L82.8211 56.702V56.7003Z" fill="black"></path>
<path d="M99.6667 27.4896C97.5912 28.2738 95.8597 29.2352 94.0719 30.4036L93.4333 30.1931C93.3035 30.151 93.4263 29.7282 93.4719 29.6019C95.0404 27.8633 97.1368 26.8159 99.4737 26.4668C99.8649 26.4949 100.128 26.5545 100.502 26.8773L99.6667 27.4914V27.4896Z" fill="black"></path>
<path d="M81.3719 52.972L80.6 52.8597C79.7719 52.7386 81.986 49.1386 82.9631 47.7071C83.0807 47.5334 83.6035 47.272 83.714 47.4334C83.8544 47.6386 83.9842 47.9281 84.1123 48.2492C83.3035 49.986 82.4509 51.3895 81.3737 52.9702L81.3719 52.972Z" fill="black"></path>
<path d="M102.858 85.2161C99.8474 84.4213 99.7421 83.1319 100.382 83.0512C100.546 83.0301 100.919 83.0652 101.093 83.1284C103.005 83.8266 104.926 84.1336 106.944 84.3143C110.675 84.6494 116.556 83.7687 120.163 82.4371L122.302 81.4143C122.7 81.2231 123.184 81.1564 123.497 81.4862C123.73 81.7319 123.619 82.4529 123.202 82.7213C119.328 85.202 112.991 86.0599 108.251 85.9933C106.358 85.9669 104.682 85.6968 102.858 85.2161Z" fill="black"></path>
<path d="M113.463 100.679C110.782 101.28 107.158 100.586 107.426 99.4366C107.454 99.3191 107.807 99.077 107.94 99.0945L110.661 99.4349L114.223 99.0261L117.937 98.3033C118.156 98.2612 118.642 98.5261 118.716 98.7331C118.8 98.97 118.474 99.5542 118.202 99.6156L113.463 100.679Z" fill="black"></path>
<path d="M113.214 70.6417C113.247 70.8417 112.584 71.1558 112.407 71.0628C112.202 70.9558 111.733 70.6365 111.691 70.3856L110.83 65.1154C110.707 64.3628 110.607 63.3663 110.689 62.7312C111.284 62.2856 111.937 62.8505 112.025 63.3943L113.212 70.6435L113.214 70.6417Z" fill="black"></path>
<path d="M126.216 98.4452C126.068 98.6487 125.6 98.8153 125.411 98.7346C125.221 98.6539 125.023 98.1662 125.111 97.975L125.672 96.7522L128.428 92.6311C128.589 92.3908 129.226 92.2048 129.453 92.3346C129.679 92.4645 129.87 93.0908 129.702 93.3417L127.154 97.1504L126.214 98.4452H126.216Z" fill="black"></path>
<path d="M111.186 118.377C111.346 119.105 111.007 119.83 110.547 120.132C110.016 120.481 109.253 120.405 108.677 120.093C107.989 119.721 107.593 119.049 107.598 118.326C107.603 117.603 108.184 116.875 109.037 116.761C109.97 116.637 110.958 117.339 111.186 118.375V118.377Z" fill="black"></path>
<path d="M111.249 77.7424C110.981 77.5722 110.76 77.067 110.907 76.795C111.302 76.0635 112.923 77.6687 114.528 75.0424C114.749 74.6827 115.277 74.4599 115.644 74.5775C115.939 74.6722 116.204 75.3371 116.042 75.6617C115.125 77.4968 113.205 78.9845 111.249 77.7406V77.7424Z" fill="black"></path>
<path d="M97.5087 79.9086C96.7877 80.6717 96.1807 81.6121 95.9087 82.5805C95.8509 82.7875 95.2456 82.8928 95.1052 82.7419C93.6947 81.2419 97.7298 77.0156 98.7088 77.6577C98.9035 77.784 98.9473 78.3875 98.7719 78.5735L97.5087 79.9086Z" fill="black"></path>
<path d="M83.9895 70.8401C83.407 72.9489 84.8527 73.7542 84.4263 74.5243C84.3123 74.7296 83.686 74.7507 83.5123 74.5875C82.2965 73.4384 82.1544 71.9349 82.4737 70.3208C82.5492 69.9366 82.2334 68.9857 83.0579 69.0489C83.6983 69.098 84.172 70.1752 83.9878 70.8384L83.9895 70.8401Z" fill="black"></path>
<path d="M127.351 79.5382C126.788 78.4645 126.133 77.7926 125.19 77.0628L123.665 75.8856C123.584 75.8224 123.493 75.4522 123.47 75.3522C123.44 75.2189 123.76 74.9242 123.96 74.9821C126.167 75.4996 129.177 78.6417 128.205 79.6996C128.044 79.875 127.468 79.761 127.353 79.5382H127.351Z" fill="black"></path>
<path d="M138.847 68.547C138.316 68.1417 138.24 67.8715 138.253 67.3908L138.284 66.0575C138.289 65.8575 138.375 65.6926 138.679 65.4014C139.142 65.9136 139.391 66.3382 139.656 66.9575L138.849 68.547H138.847Z" fill="black"></path>
<path d="M100.833 60.7284C98.9737 60.7004 97.2632 61.1179 95.4386 61.6249C95.2158 61.6863 94.6597 61.3776 94.6597 61.1583C94.6597 60.939 94.9439 60.4846 95.1562 60.4056C97.2246 59.6302 101.246 58.6197 101.84 60.0267C101.904 60.1776 101.737 60.6127 101.598 60.6706C101.43 60.739 101.128 60.732 100.835 60.7284H100.833Z" fill="black"></path>
<path d="M98.2965 63.2188C98.7087 62.996 99.3386 63.1574 99.5544 63.4978C99.7807 63.8557 99.7105 64.5311 99.3087 64.8153C98.9702 65.0557 98.293 64.9206 98.0333 64.5293C97.8035 64.1802 97.8474 63.4609 98.2947 63.2188H98.2965Z" fill="black"></path>
<path d="M123.193 58.6559C120.933 58.5051 118.626 59.7542 118.258 58.8226C117.714 57.4472 125.016 56.4243 125.274 58.1717C125.302 58.3665 124.923 58.7717 124.725 58.7577L123.195 58.6559H123.193Z" fill="black"></path>
<path d="M122.454 62.8245C122.132 63.0456 121.489 62.7473 121.277 62.4684C121.016 62.1263 121.023 61.521 121.372 61.1877C121.721 60.8543 122.423 60.9859 122.698 61.3842C122.937 61.7315 123.11 62.3754 122.454 62.8245Z" fill="black"></path>
</svg>