<svg width="220" height="220" viewBox="0 0 220 220" fill="none" xmlns="http://www.w3.org/2000/svg">
<path d="M88.2316 121.092C89.4228 120.485 87.7404 118.678 88.0158 115.571C88.2018 113.478 89.4913 111.958 91.5193 111.299L90.7632 107.858C89.1755 106.669 88.9281 105.2 89.572 105.083C89.8579 105.03 90.393 105.232 90.7053 105.355L91.6316 105.121C91.7597 107.106 93.2158 108.048 94.7386 109.304C96.2614 110.56 97.1913 109.8 97.3737 110.993C97.4386 111.414 96.8614 111.897 96.3263 111.728C95.1351 111.35 94.0474 110.697 92.9685 109.967L93.8369 114.106C93.9895 114.836 93.9948 115.478 93.9193 116.264L96.2509 117.56L98.4018 118.271C108.14 120.716 122.265 114.586 130.242 108.16C129.325 104.632 128.74 101.148 128.323 97.3916L126.554 99.8864C126.311 100.657 125.849 101.337 125.211 101.892C123.798 103.625 122.175 105.006 120.518 106.493L119.225 107.655C118.025 108.732 116.73 109.651 115.249 110.335C113.768 111.02 111.302 111.493 111.207 110.46C111.16 109.941 111.53 109.553 112.063 109.446C113.956 109.071 115.537 108.058 117.04 106.876C116.423 105.932 115.991 105.097 115.59 104.114C116.798 103.028 116.805 104.771 118.221 105.992L122.49 102.327C122.905 101.971 123.004 101.443 122.84 100.827L123.975 100.625C124.611 100.051 125.074 99.2671 125.533 98.525L128.118 94.3495C127.075 93.732 125.739 92.653 125.846 92.0829C125.881 91.8969 126.454 91.7057 126.616 91.8162L128.725 93.2495C129.812 90.953 130.807 88.7636 130.835 86.339L130.89 81.7566L130.742 78.6232C130.732 78.3881 130.937 77.9759 131.077 77.8355C131.24 77.6706 131.937 77.7741 131.988 78.018L132.326 79.6057L133.432 79.5759C136.779 78.1952 137.753 71.2267 137.995 67.4829L138.195 64.3846C138.358 61.8355 137.76 57.8092 136.068 56.9864C134.433 56.1899 132.944 57.4215 131.997 59.2092L130.926 59.3583L129.525 60.4215L129.749 62.0829C129.897 63.1741 129.893 64.4618 129.353 64.9004C129.225 65.0039 128.782 64.7197 128.786 64.539L128.854 61.0302C127.649 61.1109 128.49 62.1127 128.123 63.4864C128.093 63.6004 127.7 63.9092 127.616 63.825L127.235 63.446L127.081 62.1215L122.89 64.8601C122.286 65.2531 121.304 65.2706 120.542 65.2794C120.751 66.4478 120.739 67.5425 120.477 68.7109C119.558 72.818 115.891 75.8039 111.665 75.5267C107.004 75.2215 103.582 71.7232 103.26 67.1127L101.209 66.2057C100.061 65.6987 98.7439 66.1215 97.7351 66.6776C97.9053 67.0706 98.1299 67.5864 98.1474 67.9934L98.6527 79.8267L98.8035 83.0583L101.635 82.4671C101.975 82.3969 102.414 82.7495 102.477 83.0864C102.53 83.3601 102.272 83.9671 101.965 84.0513C100.744 84.3899 99.4755 84.7688 98.2737 84.7074C97.172 84.6513 97.107 83.432 97.0702 82.646L96.6878 74.739L96.4877 71.1285C95.9948 72.0706 95.7878 73.0004 95.1983 73.7916L94.286 75.018C94.0772 75.2987 93.5299 75.7583 93.186 76.025C90.6544 77.9881 87.2299 78.3092 84.1895 76.8969C81.5632 75.6776 79.5895 73.1267 79.2299 69.8829L78.1369 69.925C77.6649 69.9425 77.186 69.8109 76.5755 69.5987L76.579 71.1408C76.579 71.3566 76.1983 71.7092 76.0088 71.7566C75.7878 71.8109 75.3088 71.4916 75.2404 71.2531L73.9755 66.8952C73.7579 66.1478 73.1702 65.4653 73.4316 64.7338C72.4614 64.3215 71.6369 63.1952 70.9755 63.7531C68.7246 65.6531 70.4246 72.5952 71.6965 75.818L72.6895 78.3302L74.1474 81.4355C74.9 83.0373 76.3421 84.9952 77.6492 84.2688L76.2527 78.8373C75.8 77.0776 75.4544 73.6601 76.2439 73.6302C76.4702 73.6215 76.7825 73.9495 76.8106 74.232C77.1123 77.2285 78.0088 79.9706 78.9281 82.832L78.6474 85.1601C78.5755 85.7566 78.2632 86.1022 77.6299 86.2495C74.1649 87.0513 72.3053 82.4706 70.972 79.3636C69.0667 74.9215 67.0509 68.4425 68.5141 63.9759C68.9842 62.5408 70.207 61.6232 71.8211 61.7618L71.1106 56.0952C70.9053 54.4531 71.0562 52.7548 71.0597 51.0443C71.072 46.5443 71.9509 42.1846 73.9492 38.1846C74.1053 37.8723 74.5632 37.5952 74.8228 37.5987C75.1158 37.6022 75.586 38.2881 75.479 38.5794L74.7492 40.5478C73.0421 45.1513 72.586 49.8109 72.8509 54.7583C73 57.5513 73.5 60.2408 73.8299 62.9899C74.0456 63.3601 74.186 63.8145 73.9386 64.2338L75.0562 65.2794L75.2263 62.4408L75.4685 59.4302C75.486 59.2127 75.8842 58.9074 76.0527 58.9004C76.2211 58.8934 76.6106 59.2109 76.6211 59.3916L76.7509 61.6829L76.5 67.1548L77.5106 68.4846C77.7544 68.8057 78.8421 68.6425 79.1299 68.5039C79.4334 66.8074 79.9088 64.5302 80.7281 64.9759C80.8983 65.0688 81.0737 65.532 80.9649 65.7373C80.3649 66.8636 80.3211 68.2197 80.3807 69.5618C80.5667 73.7074 84.2544 76.7794 88.4176 76.5478C92.986 76.2934 95.9316 72.3338 95.4193 67.9829C95.0983 67.8338 94.693 67.6109 94.6334 67.4039C94.5737 67.1969 94.8842 66.7267 94.986 66.5092C94.9562 64.5741 92.5386 63.3039 93.4825 62.8741C94.5053 62.4074 95.6 64.5092 96.2807 66.1355C98.4246 64.6443 100.937 64.453 103.198 65.7337L104.06 62.8583C104.109 62.6969 104.475 62.3969 104.639 62.4074C104.802 62.418 105.098 62.646 105.165 62.7952C105.333 63.1671 104.395 64.0741 104.444 65.7127L104.488 67.1952C104.605 71.0987 107.842 74.1548 111.756 74.3548C115.984 74.5706 119.307 71.2267 119.565 67.1039C119.618 66.2636 119.698 65.6057 118.982 65.0162C119.518 63.6162 118.184 61.9338 116.988 60.7618C116.897 60.6285 116.944 60.1548 117.102 60.1302L117.83 60.018C119.123 61.1548 119.826 62.4162 120.349 64.0478C120.865 64.0092 121.763 63.9776 122.118 63.7338L126.082 61.0092C126.614 60.6443 126.905 60.4215 127.109 59.6548L127.981 59.7653C128.765 59.3092 129.861 58.7583 130.568 58.1145C131.304 57.2671 131.763 56.2109 132.797 55.5881C134.17 54.7636 136.005 54.6846 137.435 55.5688C141.147 57.8618 139.909 68.2987 139.075 72.9109C138.756 74.6776 138.239 76.2794 137.574 77.9232C136.842 79.732 135.316 81.1092 133.354 81.3478L132.353 81.1952L132.633 84.739C132.858 87.5636 131.584 91.6057 130.109 94.1425C129.786 94.6969 129.681 94.9478 129.79 95.618L130.932 102.73C132.949 102.343 134.818 102.828 135.956 104.392C136.649 105.343 136.777 106.593 136.967 107.76L137.868 113.328C137.977 113.997 137.747 114.539 137.093 114.606C136.656 114.65 136.018 114.281 135.933 113.695L135.275 109.116C135.102 107.909 135.047 106.65 134.377 105.611C133.707 104.572 132.356 104.132 131.205 104.553L131.684 106.848C131.968 106.992 132.304 107.162 132.447 107.29C132.616 107.439 132.551 108.018 132.447 108.228C131.756 109.634 130.482 110.351 129.288 111.239L127.888 112.279L123.112 115.058C120.981 116.299 118.744 117.136 116.421 118.018C113.149 119.262 109.835 120.043 106.342 120.548C104.039 120.881 101.721 120.751 99.4246 120.372C96.686 119.92 94.1404 118.853 92.1246 117.034C91.586 116.548 91.8071 115.813 92.2421 115.392L91.8246 113.171C88.6509 114.658 89.8878 117.593 90.5632 120.625L91.0263 122.704C91.2439 123.678 91.1299 124.664 90.5667 124.9C90.3492 124.992 89.7491 124.757 89.6755 124.521L89.1755 122.902L87.8141 123.602L83.3562 125.843L81.0263 126.872L77.4369 128.528L75.0842 129.648L70.0263 131.946L67.986 132.872L64.4474 134.59L62.8842 135.335L57.9369 137.788L55.6281 139.16C53.9439 140.16 52.7158 141.785 52.0035 143.59L50.2772 147.964L49.7228 149.73L47.7667 156.023C46.5018 160.092 45.8228 164.174 45.0527 168.418L41.2386 189.45L40.1983 196.493C40.1667 196.707 40.179 197.283 40.0211 197.411C39.6948 197.662 38.8562 197.581 38.3527 197.311L39.1 190.153L42.1386 173.732L44.1 162.872C44.9474 158.178 46.372 153.786 47.8386 149.274L48.7492 146.474C50.1439 142.185 52.1035 138.572 56.2386 136.409L59.9158 134.486L64.0386 132.474L75.1369 127.279L80.1228 124.995L82.7228 123.779L85.4667 122.488L88.2176 121.085L88.2316 121.092Z" fill="black"></path>
<path d="M193.833 177.814L195.291 190.341L195.716 193.73C195.026 194.039 193.833 193.839 193.558 193.165L192.97 186.665L191.382 174.427L189.323 161.241L187.96 154.514C187.395 151.728 186.73 149.058 185.695 146.418C184.405 143.127 183.014 139.993 180.896 137.188C178.267 133.704 175.104 131.006 171.323 128.835C167.291 126.521 163.191 124.488 158.782 123L155.872 122.018L145.504 118.527L142.512 117.302C141.014 116.69 139.053 115.911 139.302 114.867C139.358 114.634 139.912 114.337 140.151 114.418L141.733 114.955C145.295 116.442 148.786 117.713 152.458 118.946L163.218 122.558L168.975 125.227C172.354 126.793 175.4 128.811 178.232 131.235L180.093 133.065L182.523 135.904C183.835 137.437 184.821 139.185 185.616 141.041L186.465 143.021C187.286 144.935 188.118 146.725 188.653 148.755L189.637 152.483L191.505 162.413L192.033 165.218L192.305 166.841L192.504 168.179L193.835 177.814H193.833Z" fill="black"></path>
<path d="M119.686 29.2772C118.419 28.4579 116.391 25.586 113.554 23.9948C111.109 22.6228 106.618 21.4965 103.819 21.4702C101.142 21.4456 97.9438 22.4035 94.2123 22.472C92.3667 22.5053 90.9053 23.407 89.3649 24.2439L87.6403 25.1807C85.0684 26.579 82.5105 27.979 80.607 30.2544L79.0175 32.1544L77.2614 34.4825L76.6772 35.4877C76.5281 35.7439 75.8351 35.8614 75.586 35.7158C73.5035 34.507 80.8333 26.6649 84.0895 24.8562L89.8807 21.6369C92.4614 20.2035 96.1193 20.6509 100.003 19.8492C101.854 19.4667 103.649 19.3474 105.512 19.572C108.551 19.9369 111.367 20.6965 114.147 22.0106C115.635 22.7123 116.907 23.7492 118.063 24.907L119.647 26.493C120.261 27.1088 120.737 27.7456 121.151 28.5106L122.507 29.4211C124.212 30.5649 125.679 31.9632 126.881 33.6509L129.874 37.8527L130.528 39.1228C131.918 42.379 132.689 45.7351 133.461 49.1842L133.805 51.386C133.903 52.0158 134.004 52.8948 133.633 53.4141C133.505 53.593 132.956 53.7421 132.821 53.607L132.223 53.0088L131.333 47.8123C130.675 45.0702 130.112 42.3439 128.723 39.8351C127.407 37.4614 125.889 35.1334 123.953 33.2702L120.632 30.079C120.312 29.772 120.153 29.5842 119.682 29.279L119.686 29.2772Z" fill="black"></path>
<path d="M157.456 190.365L157.126 192.716L157.051 194.427C157.023 195.083 156.379 195.45 155.805 195.276C155.518 195.188 155.226 195.092 155.072 194.992C154.888 194.871 154.818 194.269 154.854 194.041L155.849 187.911L156.749 180.413L158.286 165.457C158.616 162.253 159.737 159.336 160.598 156.237C162.461 149.539 165.312 143.478 169.544 137.965C169.756 137.69 170.247 137.464 170.514 137.597C170.749 137.714 170.907 138.381 170.732 138.625C168.249 142.081 166.3 145.665 164.756 149.672C163.167 153.799 161.842 157.939 160.875 162.262L160.337 164.674L159.947 167.302L159.521 170.7L158.739 178.953L158.502 181.741L158.214 184.351L157.453 190.364L157.456 190.365Z" fill="black"></path>
<path d="M62.9228 197.04C62.8965 197.372 62.9368 197.854 62.8123 198.096C62.6947 198.326 62.2053 198.553 61.9491 198.486C61.3088 198.319 60.7982 197.831 60.8737 197.191C61.2596 193.93 61.0895 190.767 60.5544 187.539L59.9789 184.07L58.7017 175.172L58.1 171.217L56.5246 160.856C55.9772 157.258 55.6158 153.828 55.4386 150.205C55.4246 149.907 55.8281 149.456 56.0684 149.428C56.3842 149.391 56.821 149.823 56.8017 150.186C56.7281 151.596 57.0965 152.707 57.3105 154.058L59.8281 169.949L60.9965 177.549L61.2579 179.781L62.4017 186.863L62.9877 190.521C63.2123 191.923 63.2263 193.317 63.1158 194.681L62.9246 197.042L62.9228 197.04Z" fill="black"></path>
<path d="M108.36 132.926C106.13 133.284 100.391 132.758 98.2369 131.966L95.2667 130.875L92.1123 129.303C91.886 129.191 91.7246 128.58 91.7175 128.34C91.7105 128.1 92.1684 127.696 92.4491 127.719C96.8105 130.037 101.505 131.245 106.498 131.082C110.414 130.954 114.214 130.303 117.858 128.896C124.37 126.381 129.326 123.384 134.875 119.256C135.33 118.919 136.165 118.312 136.575 119.023C136.986 119.733 136.237 120.54 135.702 120.942L132.395 123.416L130.891 124.395L126.784 126.93L124.793 127.926L121.249 129.621C119.2 130.602 117.096 131.347 114.909 131.872L108.361 132.923L108.36 132.926Z" fill="black"></path>
<path d="M113.542 59.3188L107.011 60.4715C106.784 60.7294 106.258 61.1399 105.984 61.0943C105.216 59.9487 104.109 60.9031 103.584 60.1996C103.423 59.9838 103.69 59.3574 103.949 59.2399L105.875 58.3662C108.616 57.1241 111.586 56.4259 114.572 56.496C115.547 56.5188 116.935 56.9539 117.702 57.1294C117.893 57.1732 118.17 57.5206 118.207 57.6662C118.251 57.8434 117.907 58.2188 117.721 58.2539L116.204 58.5346C116.36 60.161 115.319 59.0031 113.542 59.3171V59.3188Z" fill="black"></path>
<path d="M84.1228 62.7649C82.3947 62.693 82.3754 64.0298 81.6737 63.6596C81.4859 63.5596 81.4298 63.1842 81.3772 62.6789L80.3263 62.8052L79.7824 62.5245C79.6193 62.4403 79.9052 61.8894 80.0877 61.8175L82.5579 60.8386L87.2228 59.8859C88.4596 59.6333 93.8123 60.7158 93.6193 61.5719C93.3684 62.6807 92.1947 62.5052 91.8807 62.5298C89.3158 62.7298 86.8368 62.8772 84.1228 62.7649Z" fill="black"></path>
<path d="M94.0736 92.1839C93.9 92.119 93.7754 91.5067 93.8894 91.3856C94.028 91.2383 94.3719 91.1277 94.5965 91.1751C95.8824 91.4383 101.196 91.3453 102.009 91.147L106.81 89.9804L112.254 88.2207C112.486 88.3681 112.833 88.6733 112.777 88.854C112.721 89.0347 112.516 89.3225 112.332 89.5698C109.002 91.0435 105.57 91.9382 101.963 92.6733C99.7333 92.9347 97.6035 92.6821 95.3684 92.3909C95.0491 92.3488 94.4122 92.3102 94.0736 92.1839Z" fill="black"></path>
<path d="M83.2562 95.1338L82.9597 96.1619L83.5684 97.9478L83.6597 99.325C83.6702 99.4707 83.607 99.8005 83.5369 99.9198C83.4509 100.069 82.886 99.9408 82.793 99.7584L80.5842 95.4005C80.093 94.4303 79.6404 93.5794 79.8597 92.4619C79.9912 91.7917 80.0351 90.9373 79.9141 90.3075L78.9404 89.897C78.3088 89.6303 78.7123 87.1952 79.3035 85.6426L80.0053 85.6935C80.6369 85.7391 79.3369 88.3268 80.5334 89.8847L81.0597 89.218C81.1597 89.0899 81.6562 89.1829 81.6772 89.3443C81.8421 90.597 80.5562 92.2356 82.1737 94.9654L82.9597 92.4899C83.0088 92.3373 83.3105 92.0917 83.4526 92.0531C83.6281 92.004 84.0632 92.2022 84.1404 92.3092L83.2562 95.1373V95.1338Z" fill="black"></path>
<path d="M122.046 44.8438C122.009 45.0684 121.27 45.1895 121.203 45.028L120.87 44.2193C121.53 41.614 121.33 39.0649 120.188 36.6631C119.165 34.721 117.956 33.0193 116.449 31.4193C116.463 31.2421 116.491 30.914 116.607 30.9105L117.363 30.8877C119.163 32.3965 120.521 34.207 121.567 36.328C122.328 37.9473 122.877 39.728 122.588 41.507L122.046 44.8456V44.8438Z" fill="black"></path>
<path d="M75.9526 51.4436L75.5088 53.5278C75.479 53.6717 74.9842 53.7927 74.8404 53.7576C74.6614 53.7155 74.386 53.3383 74.4351 53.1436L75.179 50.2015C74.9228 48.0208 74.7263 46.012 75.2684 43.8559C75.6719 42.2489 76.1333 39.9348 76.9526 39.7945C77.1176 39.7664 77.3597 40.1383 77.3018 40.3331C76.5263 42.9348 76.0667 45.9804 76.2421 48.6927C76.3053 49.6664 76.1719 50.4015 75.9491 51.4453L75.9526 51.4436Z" fill="black"></path>
<path d="M94.2913 24.9281C90.6702 25.4913 88.3105 27.9176 87.7562 27.5825C87.5965 27.486 87.5474 26.9649 87.7176 26.8211C91.6649 23.4421 96.8649 23.1369 96.7035 24.1158C96.6807 24.2492 96.4474 24.5913 96.307 24.6141L94.293 24.9281H94.2913Z" fill="black"></path>
<path d="M105.486 95.2774C106.754 97.2178 97.9228 97.7581 98.4614 95.8932C98.7316 94.9599 100.088 95.9651 102.698 95.3809L104.653 94.9423C104.882 94.8915 105.351 95.0704 105.486 95.2774Z" fill="black"></path>
<path d="M85.5456 103.13C83.8614 102.082 85.1947 100.298 83.8807 99.098L84.6947 99.4085L85.0333 98.398C86.1544 98.3349 85.8245 97.3822 86.4438 97.0366C86.5702 96.9664 87.021 96.9787 87.014 97.1243L86.9772 97.8384C86.9017 98.4366 86.6316 98.8945 86.0473 99.0033C84.7912 100.893 87.2649 101.819 86.628 102.696C86.4017 103.009 85.8193 103.3 85.5473 103.131L85.5456 103.13Z" fill="black"></path>
<path d="M126.502 57.9524C126.393 58.0577 125.928 58.0717 125.846 57.9542C125.744 57.8068 125.526 57.3682 125.56 57.1752L126.246 53.1577L126.518 50.6892C126.539 50.491 126.575 50.184 126.672 50.0857C126.791 49.9612 127.214 50.0454 127.414 50.1261C127.432 51.9594 127.254 53.4752 126.939 55.2384L126.502 57.9507V57.9524Z" fill="black"></path>
<path d="M105.325 110.617C105.57 110.635 105.732 111.414 105.595 111.631C105.188 112.282 103.423 112.3 102.968 111.765C102.037 110.666 101.718 107.558 102.882 107.844C103.053 107.886 103.381 108.14 103.407 108.335L103.709 110.5L105.325 110.617Z" fill="black"></path>
<path d="M103.219 23.9876C99.7386 22.7859 97.5649 24.0982 96.907 23.6946C96.7369 23.5894 96.9667 22.9911 97.1667 22.9332C99.5983 22.228 101.667 22.049 103.854 23.0648C104.033 23.1473 104.114 23.7753 103.968 23.8806C103.823 23.9859 103.421 24.056 103.221 23.9876H103.219Z" fill="black"></path>
<path d="M93.9807 29.3597C93.8263 29.4948 93.321 29.4719 93.2105 29.3228C93.1 29.1737 93.1228 28.6474 93.2737 28.5211C94.3 27.6632 95.5123 26.6193 96.7 26.0544L98.2017 25.3421C98.3824 25.2562 98.7947 25.3491 98.9386 25.5193C99.1123 25.7246 99.0246 26.1176 98.7386 26.2526C96.9719 27.1 95.5035 28.0176 93.9807 29.3597Z" fill="black"></path>
<path d="M109.309 110.676C109.358 111.204 108.482 111.565 108.028 111.398C107.535 111.218 107.204 110.855 107.093 110.248L106.626 107.699C106.726 107.406 107.479 107.276 107.788 107.351C108.64 107.558 107.961 109.121 109.311 110.676H109.309Z" fill="black"></path>
<path d="M101.484 110.758C101.595 110.809 101.689 111.493 101.528 111.579L100.849 111.939C100.605 112.069 100.195 112.267 99.9772 112.232C98.4597 111.988 98.1053 107.746 99.2298 107.684C99.9439 107.646 99.4123 109.102 99.9544 110.584L101.486 110.758H101.484Z" fill="black"></path>
<path d="M90.5649 29.4438C90.4299 29.5701 89.9597 29.642 89.8527 29.5315C89.7456 29.421 89.6053 29.1648 89.5176 28.9561C90.8895 27.5157 94.6246 24.9999 94.9176 26.0824C94.979 26.3052 94.7913 26.6877 94.5211 26.8122C93.093 27.4701 91.6369 28.4438 90.5649 29.4438Z" fill="black"></path>
<path d="M125.342 52.8284C125.318 53.0284 124.953 53.4302 124.772 53.4863C124.561 53.5512 124.191 53.0547 124.223 52.8249L124.928 47.7179C124.961 47.4793 125.319 47.1284 125.532 47.1547C125.763 47.1845 125.968 47.5881 125.937 47.853L125.342 52.8284Z" fill="black"></path>
<path d="M88.179 67.3366C87.2912 67.2402 86.9105 66.4173 87.0228 65.7261C87.1351 65.0349 87.7439 64.47 88.5807 64.6051C89.286 64.7191 89.6877 65.4121 89.6526 66.0454C89.614 66.7401 89.0702 67.4331 88.179 67.3366Z" fill="black"></path>
<path d="M110.637 64.4472C110.102 64.2314 109.779 63.5858 109.772 63.0665C109.765 62.5893 110.188 61.9595 110.73 61.7945C111.33 61.6103 111.979 61.9367 112.247 62.391C112.537 62.8788 112.532 63.5121 112.165 63.9928C111.877 64.37 111.188 64.67 110.637 64.4489V64.4472Z" fill="black"></path>
<path d="M97.9877 28.7087C97.7176 28.9297 97.0719 28.7665 96.9948 28.3788C98.3246 26.5981 102.163 24.642 101.989 25.8911C101.965 26.0648 101.732 26.342 101.544 26.428C100.202 27.0437 99.1246 27.7788 97.9877 28.7087Z" fill="black"></path>
<path d="M88.4491 102.582C88.4684 104.368 89.3035 104.952 88.4526 105.243C86.8614 105.789 86.8772 100.519 87.9842 100.621C88.1649 100.636 88.4316 101.014 88.4333 101.215L88.4473 102.582H88.4491Z" fill="black"></path>
<path d="M123.772 48.3197C123.723 48.6969 123.646 49.0284 123.509 49.2127C123.372 49.3969 122.621 48.9162 122.661 48.667L123.379 44.3407C123.407 44.1705 123.684 43.9179 123.8 43.8653C123.946 43.7986 124.298 44.2337 124.274 44.4109L123.77 48.3197H123.772Z" fill="black"></path>
<path d="M115.097 83.8435C116.839 84.561 117.849 86.9768 117.653 87.3645C117.577 87.5119 117.275 87.6926 117.111 87.7172C116.305 87.8382 116.647 85.9786 114.712 84.7891C114.546 84.6873 114.391 84.2996 114.404 84.1294C114.416 83.9593 114.937 83.7786 115.095 83.8452L115.097 83.8435Z" fill="black"></path>
<path d="M109.43 86.4492C109.646 86.6369 109.826 86.9369 109.872 87.1088C109.928 87.3141 109.289 87.7088 109.098 87.5983C107.984 86.9509 106.333 85.2632 106.326 84.665C106.325 84.4597 106.979 84.3159 107.161 84.4755L109.43 86.4492Z" fill="black"></path>
<path d="M96.0772 89.5649C96.0088 89.7245 95.5755 89.8368 95.4316 89.7509C95.2597 89.6473 94.9579 89.1123 95.0561 88.9263L96.6439 85.9C96.7544 85.8158 97.2597 85.8052 97.3807 85.8702C97.5018 85.9351 97.4947 86.2596 97.4351 86.3982L96.0772 89.5666V89.5649Z" fill="black"></path>
<path d="M128.882 56.9299C128.87 57.2106 128.553 57.5966 128.34 57.5966C128.128 57.5966 127.767 57.2457 127.788 57.0334L128.137 53.3352C128.154 53.1509 128.349 52.8088 128.514 52.7685C128.739 52.7141 129.053 53.0545 129.042 53.2878L128.881 56.9317L128.882 56.9299Z" fill="black"></path>
<path d="M99.7526 102.705C99.1473 104.705 99.4087 105.835 98.8316 106.122C98.6579 106.208 98.1877 105.894 98.1509 105.694C98.0719 105.259 98.1245 104.638 98.2386 104.221L98.7438 102.366C98.7982 102.17 99.1754 101.894 99.3649 101.947C99.6263 102.019 99.8333 102.436 99.7526 102.705Z" fill="black"></path>
<path d="M112.172 86.8067L110.423 85.5541C110.032 85.2734 109.568 84.898 109.318 84.5646C109.372 84.3927 109.63 84.0401 109.788 84.0541C109.946 84.0682 110.298 84.1857 110.433 84.2734L112.497 85.5962C112.719 85.7401 112.97 86.1348 112.968 86.3611C112.967 86.5875 112.358 86.9401 112.172 86.8067Z" fill="black"></path>
<path d="M88.8509 97.965C88.6333 97.972 88.3017 97.9439 88.1491 97.886C87.9649 97.8176 87.8702 97.3 87.9438 97.0702L88.8579 94.2123C88.907 94.0579 89.2666 93.8649 89.3965 93.8369C89.5579 93.8018 89.8544 94.2579 89.8105 94.4211L88.8526 97.965H88.8509Z" fill="black"></path>
<path d="M106.275 87.281L106.814 87.6985C106.951 87.8055 106.818 88.4073 106.64 88.4371C106.156 88.5196 105.326 88.0529 105.058 87.588L104.1 85.9266C104.002 85.7564 104.054 85.2564 104.2 85.1582C104.375 85.0406 104.86 85.1547 104.981 85.3389L106.274 87.281H106.275Z" fill="black"></path>
<path d="M102.963 105.453C102.979 105.628 102.714 105.974 102.546 105.988C101.267 106.093 101.454 101.632 102.37 101.974C102.544 102.039 102.693 102.358 102.712 102.59L102.961 105.451L102.963 105.453Z" fill="black"></path>
<path d="M118.905 93.5313C118.996 93.6805 118.911 94.1787 118.763 94.2559C117.96 94.6752 116.942 92.7945 116.486 91.5068C116.423 91.3296 116.782 90.798 116.932 90.8594C117.081 90.9208 117.421 91.119 117.516 91.2752L118.903 93.5331L118.905 93.5313Z" fill="black"></path>
<path d="M106.856 104.319C106.928 104.54 106.807 105.055 106.698 105.209C106.568 105.393 105.881 105.267 105.811 105.026L105.065 102.444C105.011 102.256 105.286 101.777 105.458 101.679C105.649 101.57 106.047 101.812 106.13 102.065L106.856 104.319Z" fill="black"></path>
<path d="M90.5561 88.0792C89.3719 90.2494 89.5877 91.502 88.8702 91.4581C87.6947 91.3862 89.821 86.4301 90.5649 87.4301C90.6702 87.5722 90.6561 87.8985 90.5579 88.0774L90.5561 88.0792Z" fill="black"></path>
<path d="M92.8 89.575C92.6825 89.7891 92.1246 89.8224 91.9842 89.6838C91.8211 89.5206 91.7439 88.9943 91.9105 88.7505L93.5158 86.4171C93.6123 86.2768 94.2439 86.3838 94.3158 86.5312C94.4018 86.7084 94.2369 86.9645 94.0842 87.2435L92.8018 89.575H92.8Z" fill="black"></path>
<path d="M99.5772 89.295C99.5491 89.4968 99.0438 89.7056 98.8859 89.6441C98.6965 89.5687 98.3614 89.1547 98.4 88.9512L98.8526 86.588C98.893 86.3792 99.3596 86.0792 99.5614 86.1073C99.7631 86.1354 99.9649 86.5564 99.9281 86.8073L99.5754 89.295H99.5772Z" fill="black"></path>
<path d="M104.142 87.8965C104.244 88.1 104.391 88.4526 104.419 88.6123C104.447 88.7719 104.075 89.0123 103.912 89.0403C103.721 89.0719 103.463 88.8737 103.239 88.6824L102.27 86.4649C102.188 86.2772 102.167 85.8386 102.311 85.7C102.505 85.5123 103.049 85.7 103.181 85.9632L104.144 87.8982L104.142 87.8965Z" fill="black"></path>
<path d="M122.881 92.4083C123.06 92.5943 123.146 93.0627 123.014 93.2417C122.882 93.4206 122.304 93.4926 122.142 93.3259L120.563 91.6908C120.414 91.5364 120.384 91.061 120.479 90.8785C120.574 90.6961 121.168 90.6364 121.328 90.8031L122.877 92.4083H122.881Z" fill="black"></path>
<path d="M116.477 100.342L115.414 98.281C115.286 98.0319 115.937 97.4494 116.109 97.6038L117.47 99.7511C117.581 99.9266 117.47 100.428 117.319 100.558C117.147 100.706 116.604 100.591 116.474 100.342H116.477Z" fill="black"></path>
<path d="M121.591 97.3037C121.77 97.4826 121.679 97.9984 121.519 98.1283C121.36 98.2581 120.796 98.2791 120.642 98.1125L119.418 96.7756C119.288 96.6335 119.297 96.1054 119.382 95.9493C119.486 95.7598 120.058 95.7598 120.212 95.916L121.591 97.3055V97.3037Z" fill="black"></path>
<path d="M111.056 104.012C110.997 104.239 110.467 104.511 110.277 104.432C110.088 104.353 109.798 104.079 109.677 103.876L108.926 102.611C108.821 102.434 108.842 101.995 108.977 101.844C109.505 101.255 110.498 102.618 111.056 104.014V104.012Z" fill="black"></path>
<path d="M85.3789 96.9268C85.2789 97.0619 84.7789 97.0075 84.6491 96.8847C84.493 96.7373 84.3193 96.2233 84.4368 96.0075L85.3632 94.3286C85.4667 94.1408 85.9684 94.0584 86.1228 94.1689C86.2772 94.2794 86.3158 94.7408 86.2228 94.9584L85.3789 96.9268Z" fill="black"></path>
<path d="M124.951 87.735C125.074 87.8631 125.086 88.3122 125.019 88.4438C124.937 88.607 124.381 88.6578 124.247 88.5245L122.711 86.9964C122.605 86.8929 122.619 86.4245 122.686 86.2929C122.768 86.128 123.342 86.0754 123.477 86.2157L124.949 87.7368L124.951 87.735Z" fill="black"></path>
<path d="M91.2474 102.737C91.2334 102.807 90.6404 102.868 90.6105 102.805C90.1351 101.795 90.5246 99.6492 91.3211 99.7684C91.5579 99.8035 91.7526 100.275 91.686 100.604L91.2491 102.739L91.2474 102.737Z" fill="black"></path>
<path d="M128.461 79.8754C128.618 79.9982 128.654 80.5719 128.546 80.7158C128.437 80.8596 127.961 80.9017 127.816 80.7824L126.486 79.6772C126.339 79.5561 126.27 79.0438 126.388 78.9035C126.528 78.7351 127.037 78.7421 127.214 78.8842L128.461 79.8772V79.8754Z" fill="black"></path>
<path d="M128.853 88.7139C127.886 87.8981 127.246 86.8402 127.574 86.6385L128.063 86.335L129.397 87.7665C129.526 87.9069 129.625 88.2964 129.635 88.4613C129.646 88.6262 128.991 88.8297 128.853 88.7139Z" fill="black"></path>
<path d="M126.733 84.1789C125.875 83.8876 124.781 82.8666 125.175 82.1403C125.24 82.0192 125.67 81.928 125.768 82.0227L127.149 83.3648C127.388 83.5964 127.135 84.3157 126.733 84.1789Z" fill="black"></path>
<path d="M128.749 77.0875L127.435 75.9437C127.337 75.8577 127.244 75.477 127.225 75.3454C127.202 75.1823 127.765 74.9963 127.912 75.084C128.861 75.6507 129.626 76.2788 129.419 77.0279C129.382 77.1647 128.874 77.1945 128.749 77.0875Z" fill="black"></path>
<path d="M76.1719 57.0943C75.0912 57.4294 75.3456 55.4732 76.2561 53.8574C76.7175 54.3013 76.7123 54.7188 76.6035 55.1943L76.1719 57.0925V57.0943Z" fill="black"></path>
<path d="M96.2878 104.842C96.172 105.17 95.9632 105.465 95.7018 105.474C95.0685 105.497 95.0702 104.309 95.9685 103.063C96.0509 102.948 96.5965 102.935 96.686 103.048C96.7755 103.16 96.7807 103.444 96.7299 103.588L96.2878 104.842Z" fill="black"></path>
<path d="M129.244 73.5348L128.039 72.4997C127.87 72.3559 127.851 71.7488 128.039 71.6629C128.702 71.3576 130.549 73.1383 129.832 73.6436C129.716 73.726 129.361 73.6383 129.244 73.5366V73.5348Z" fill="black"></path>
<path d="M129.923 70.2403L128.405 69.014C128.247 68.8877 128.202 68.3491 128.277 68.1772C128.353 68.0053 128.949 68.0017 129.075 68.1351L130.123 69.2368C130.254 69.3754 130.177 69.8509 129.921 70.2403H129.923Z" fill="black"></path>
</svg>